<svg id="android-logo_1_" data-name="android-logo (1)" xmlns="http://www.w3.org/2000/svg" width="24.286" height="29.113" viewBox="0 0 24.286 29.113">
  <defs>
    <style>
      .cls-1 {
        fill: #fff;
      }
    </style>
  </defs>
  <g id="android" transform="translate(0 0)">
    <path id="Trazado_1569" data-name="Trazado 1569" class="cls-1" d="M55.539,21.827a1.147,1.147,0,0,0,1.214,1.214h1.214v4.25a1.821,1.821,0,0,0,3.643,0v-4.25H64.04v4.25a1.821,1.821,0,0,0,3.643,0v-4.25H68.9a1.147,1.147,0,0,0,1.214-1.214V9.684H55.539ZM52.5,9.684a1.868,1.868,0,0,0-1.821,1.821v8.5a1.821,1.821,0,0,0,3.643,0v-8.5A1.868,1.868,0,0,0,52.5,9.684Zm20.643,0a1.868,1.868,0,0,0-1.821,1.821v8.5a1.821,1.821,0,0,0,3.643,0v-8.5A1.868,1.868,0,0,0,73.147,9.684ZM67.075,2.641l1.579-1.579a.587.587,0,0,0,0-.85.587.587,0,0,0-.85,0L65.982,2.034a5.351,5.351,0,0,0-3.157-.85,7.231,7.231,0,0,0-3.279.729L57.846.091a1.341,1.341,0,0,0-.971,0,1.341,1.341,0,0,0,0,.971l1.579,1.579a7.418,7.418,0,0,0-2.914,5.829H70.111A7.018,7.018,0,0,0,67.075,2.641ZM60.4,6.041H59.182V4.826H60.4Zm6.072,0H65.254V4.826h1.214Z" transform="translate(-50.682 0.001)"/>
  </g>
</svg>
