<svg id="XMLID_228_" xmlns="http://www.w3.org/2000/svg" width="20.868" height="25.535" viewBox="0 0 20.868 25.535">
  <defs>
    <style>
      .cls-1 {
        fill: #fff;
      }
    </style>
  </defs>
  <path id="XMLID_229_" class="cls-1" d="M28.952,75.652c-2.159,3.746-.786,9.431,1.6,12.878,1.192,1.723,2.4,3.27,4.05,3.27l.094,0a5,5,0,0,0,1.88-.5A5.148,5.148,0,0,1,38.8,90.77a4.841,4.841,0,0,1,2.12.511,4.491,4.491,0,0,0,2.03.487c1.861-.035,3-1.7,4.012-3.176a14.08,14.08,0,0,0,1.758-3.6l.007-.023a.209.209,0,0,0-.111-.257l-.015-.007a5.335,5.335,0,0,1-3.233-4.886,5.492,5.492,0,0,1,2.6-4.591l.02-.013a.209.209,0,0,0,.059-.294,6.04,6.04,0,0,0-4.75-2.58c-.135-.013-.274-.02-.414-.02a8.281,8.281,0,0,0-2.981.745,4.792,4.792,0,0,1-1.428.427A4.672,4.672,0,0,1,37,73.059a7.158,7.158,0,0,0-2.6-.661h-.066A6.385,6.385,0,0,0,28.952,75.652Z" transform="translate(-27.875 -66.265)"/>
  <path id="XMLID_230_" class="cls-1" d="M154.475,0a5.83,5.83,0,0,0-3.849,1.974,5.463,5.463,0,0,0-1.383,4.05.209.209,0,0,0,.191.181c.089.007.18.01.271.011a4.932,4.932,0,0,0,3.633-1.863A5.759,5.759,0,0,0,154.692.187.211.211,0,0,0,154.475,0Z" transform="translate(-139.052 0)"/>
</svg>
