<svg xmlns="http://www.w3.org/2000/svg" xmlns:xlink="http://www.w3.org/1999/xlink" width="117" height="88" viewBox="0 0 117 88">
  <defs>
    <style>
      .cls-1 {
        fill: #fff;
      }

      .cls-2 {
        fill: #17315a;
      }

      .cls-3 {
        filter: url(#Rect치ngulo_244);
      }
    </style>
    <filter id="Rect치ngulo_244" x="0" y="0" width="117" height="88" filterUnits="userSpaceOnUse">
      <feOffset dy="3" input="SourceAlpha"/>
      <feGaussianBlur stdDeviation="3" result="blur"/>
      <feFlood flood-opacity="0.161"/>
      <feComposite operator="in" in2="blur"/>
      <feComposite in="SourceGraphic"/>
    </filter>
  </defs>
  <g id="Grupo_247" data-name="Grupo 247" transform="translate(998.333 -746.341)">
    <g class="cls-3" transform="matrix(1, 0, 0, 1, -998.33, 746.34)">
      <rect id="Rect치ngulo_244-2" data-name="Rect치ngulo 244" class="cls-1" width="99" height="70" rx="12" transform="translate(9 6)"/>
    </g>
    <g id="Grupo_245" data-name="Grupo 245" transform="translate(-967.308 802.334)">
      <path id="Trazado_1776" data-name="Trazado 1776" class="cls-2" d="M-909.709,928.946a5.42,5.42,0,0,1,3.927,1.563,5.044,5.044,0,0,1,1.608,3.749,5.043,5.043,0,0,1-1.608,3.749,5.419,5.419,0,0,1-3.927,1.563h-3.341V928.946Zm-2.2,1.067v8.5h2.2a4.312,4.312,0,0,0,3.134-1.237,4.053,4.053,0,0,0,1.267-3.012,4.052,4.052,0,0,0-1.267-3.012,4.311,4.311,0,0,0-3.134-1.237Z" transform="translate(913.05 -928.946)"/>
      <path id="Trazado_1777" data-name="Trazado 1777" class="cls-2" d="M-869.484,946.943c-.019.03-.049.07-.088.122a2.607,2.607,0,0,1-.278.274,3.141,3.141,0,0,1-.47.348,2.8,2.8,0,0,1-.663.27,3.046,3.046,0,0,1-.848.119,2.793,2.793,0,0,1-2.115-.886,3.2,3.2,0,0,1-.841-2.3v-4.245h1.059v4.245a2.2,2.2,0,0,0,.593,1.578,1.928,1.928,0,0,0,1.452.622,2.057,2.057,0,0,0,1.563-.682,2.448,2.448,0,0,0,.637-1.741v-4.022h1.067v7.282h-1.067Z" transform="translate(885.716 -937.305)"/>
      <path id="Trazado_1778" data-name="Trazado 1778" class="cls-2" d="M-842.393,939.57h-1.06V928.946h1.06Z" transform="translate(863.33 -928.946)"/>
      <path id="Trazado_1779" data-name="Trazado 1779" class="cls-2" d="M-831.766,941.209a3.451,3.451,0,0,1,2.559-1.108,3.515,3.515,0,0,1,1.589.367,3.473,3.473,0,0,1,1.056.729l.319.349-.763.756c-.02-.03-.049-.072-.089-.126a3.85,3.85,0,0,0-.263-.3,2.613,2.613,0,0,0-.441-.374,2.555,2.555,0,0,0-.615-.285,2.492,2.492,0,0,0-.793-.126,2.412,2.412,0,0,0-1.811.811,2.792,2.792,0,0,0-.767,1.993,2.792,2.792,0,0,0,.767,1.993,2.411,2.411,0,0,0,1.811.811,2.533,2.533,0,0,0,1.208-.3,2.852,2.852,0,0,0,.83-.608l.245-.3.755.682c-.029.04-.075.095-.137.167a4.461,4.461,0,0,1-.389.363,4.542,4.542,0,0,1-.622.452,4.119,4.119,0,0,1-.841.363,3.388,3.388,0,0,1-1.048.166,3.447,3.447,0,0,1-2.563-1.108,3.715,3.715,0,0,1-1.074-2.686A3.707,3.707,0,0,1-831.766,941.209Z" transform="translate(855.751 -936.915)"/>
      <path id="Trazado_1780" data-name="Trazado 1780" class="cls-2" d="M-804.443,944.279a2.5,2.5,0,0,0,.811,1.7,2.475,2.475,0,0,0,1.767.719,2.71,2.71,0,0,0,1.267-.3,2.6,2.6,0,0,0,.83-.608l.259-.3.682.682c-.029.04-.073.095-.13.167a3.73,3.73,0,0,1-.37.363,3.955,3.955,0,0,1-.615.452,4.193,4.193,0,0,1-.852.363,3.5,3.5,0,0,1-1.071.166,3.447,3.447,0,0,1-2.563-1.108,3.715,3.715,0,0,1-1.075-2.686,3.735,3.735,0,0,1,1.063-2.686,3.356,3.356,0,0,1,2.5-1.108,3.322,3.322,0,0,1,2.489,1.034,3.6,3.6,0,0,1,1,2.611l-.074.548Zm.837-2.511a2.646,2.646,0,0,0-.837,1.6h4.934a2.6,2.6,0,0,0-.8-1.63,2.286,2.286,0,0,0-1.633-.645A2.343,2.343,0,0,0-803.606,941.768Z" transform="translate(836.219 -936.915)"/>
      <path id="Trazado_1781" data-name="Trazado 1781" class="cls-2" d="M-770.374,941.168h-.459a2.216,2.216,0,0,0-1.608.652,2.266,2.266,0,0,0-.667,1.7v4.023h-1.059v-7.283h1.059v.985c.02-.03.049-.07.089-.122a2.446,2.446,0,0,1,.281-.274,3.169,3.169,0,0,1,.478-.349,2.949,2.949,0,0,1,.681-.274,3.239,3.239,0,0,1,.9-.122h.3Z" transform="translate(813.833 -936.915)"/>
      <path id="Trazado_1782" data-name="Trazado 1782" class="cls-2" d="M-755.853,932.288h1.059v7.283h-1.059Zm1.208-3.342h1.141L-754.949,931h-.83Z" transform="translate(800.749 -928.946)"/>
      <path id="Trazado_1783" data-name="Trazado 1783" class="cls-2" d="M-740.569,942.909a1.759,1.759,0,0,0-.511-1.311,1.788,1.788,0,0,0-1.311-.5,2.328,2.328,0,0,0-1.085.263,2.4,2.4,0,0,0-.737.537l-.23.26-.682-.682c.03-.039.07-.09.122-.152a3.92,3.92,0,0,1,.341-.326,4.448,4.448,0,0,1,.552-.419,3.11,3.11,0,0,1,.759-.33,3.258,3.258,0,0,1,.959-.144,2.818,2.818,0,0,1,2.063.807,2.7,2.7,0,0,1,.819,2v4.63h-1.059v-.986c-.02.03-.051.07-.093.122a3.024,3.024,0,0,1-.282.274,3.1,3.1,0,0,1-.47.349,2.8,2.8,0,0,1-.663.27,3.043,3.043,0,0,1-.848.119,2.7,2.7,0,0,1-1.834-.645,1.912,1.912,0,0,1-.745-1.474,2.009,2.009,0,0,1,.548-1.47,2.773,2.773,0,0,1,1.578-.73Zm-.663,3.119a2.389,2.389,0,0,0,.663-1.749v-.459l-2.5.459q-1.364.259-1.371,1.289a1,1,0,0,0,.4.811,1.743,1.743,0,0,0,1.115.322A2.273,2.273,0,0,0-741.232,946.028Z" transform="translate(793.355 -936.915)"/>
    </g>
    <g id="Grupo_246" data-name="Grupo 246" transform="translate(-952.214 760.936)">
      <path id="Trazado_1784" data-name="Trazado 1784" class="cls-2" d="M-836.724,796.737a1.007,1.007,0,0,0-.435-.819,4.639,4.639,0,0,0-4.41-6.477,5.089,5.089,0,0,0-5.07-5.441,5.08,5.08,0,0,0-4.2,2.216,4.1,4.1,0,0,0-5.934,4.481,4.049,4.049,0,0,0-1.431.546.541.541,0,0,0-.177.745.541.541,0,0,0,.745.176,3,3,0,0,1,1.079-.4,1.051,1.051,0,0,0,.846-1.27,3.018,3.018,0,0,1,4.38-3.307,1.049,1.049,0,0,0,1.37-.333,4,4,0,0,1,3.318-1.766,4.005,4.005,0,0,1,4,4c0,.2-.015.3-.015.385a1.06,1.06,0,0,0,1.1,1.056,3.557,3.557,0,0,1,3.311,5.147h-20.674a3.006,3.006,0,0,1,.1-2.142.541.541,0,0,0-.28-.713.541.541,0,0,0-.713.281,4.081,4.081,0,0,0-.115,2.961.977.977,0,0,0-.266.809L-857,819.793a1.169,1.169,0,0,0,1.222.937h14.545a1.171,1.171,0,0,0,1.223-.933l2.5-17.479a.542.542,0,0,0-.46-.612.54.54,0,0,0-.612.459l-2.491,17.443a.292.292,0,0,1-.156.039h-4.644l2.12-22.892h4.669c1.061.014,1.158-.028,1.27.031-.345,2.417-.436,3.057-.457,3.2v0l0,.016v-.006l0,.014v0h0v.01h0a.542.542,0,0,0,.46.613.542.542,0,0,0,.613-.46C-836.714,796.717-836.724,796.867-836.724,796.737Zm-10.237,22.909h-3.057l-.607-6.729a.541.541,0,0,0-.588-.49.541.541,0,0,0-.49.588l.6,6.631h-4.67a.288.288,0,0,1-.155-.039c-.008-.055-3.008-21.583-3.18-22.822.089-.049-.212-.031,5.939-.031l1.272,14.1a.541.541,0,0,0,.539.493l.049,0a.542.542,0,0,0,.491-.588l-1.264-14.006h7.242Z" transform="translate(860.201 -784)"/>
      <path id="Trazado_1785" data-name="Trazado 1785" class="cls-2" d="M-842.3,811.72a1.729,1.729,0,0,1,1.727-1.727,1.729,1.729,0,0,1,1.727,1.727.541.541,0,0,0,.541.542.541.541,0,0,0,.541-.542,2.813,2.813,0,0,0-2.81-2.81,2.813,2.813,0,0,0-2.81,2.81.542.542,0,0,0,.542.542A.541.541,0,0,0-842.3,811.72Z" transform="translate(848.188 -801.796)"/>
      <path id="Trazado_1786" data-name="Trazado 1786" class="cls-2" d="M-820.271,800.208a1.729,1.729,0,0,1,1.727-1.727,1.729,1.729,0,0,1,1.727,1.727.541.541,0,0,0,.541.541.542.542,0,0,0,.542-.541,2.813,2.813,0,0,0-2.81-2.81,2.813,2.813,0,0,0-2.81,2.81.541.541,0,0,0,.542.541A.541.541,0,0,0-820.271,800.208Z" transform="translate(832.449 -793.572)"/>
    </g>
  </g>
</svg>
