<svg xmlns="http://www.w3.org/2000/svg" xmlns:xlink="http://www.w3.org/1999/xlink" width="146.666" height="62.12" viewBox="0 0 146.666 62.12">
  <defs>
    <style>
      .cls-1 {
        fill: #ff0047;
      }

      .cls-2 {
        fill: #fff;
      }

      .cls-3 {
        filter: url(#Rect치ngulo_245);
      }
    </style>
    <filter id="Rect치ngulo_245" x="0" y="0" width="146.666" height="62.12" filterUnits="userSpaceOnUse">
      <feOffset dy="3" input="SourceAlpha"/>
      <feGaussianBlur stdDeviation="3" result="blur"/>
      <feFlood flood-opacity="0.161"/>
      <feComposite operator="in" in2="blur"/>
      <feComposite in="SourceGraphic"/>
    </filter>
  </defs>
  <g id="Grupo_249" data-name="Grupo 249" transform="translate(38.039 -350.813)">
    <g class="cls-3" transform="matrix(1, 0, 0, 1, -38.04, 350.81)">
      <rect id="Rect치ngulo_245-2" data-name="Rect치ngulo 245" class="cls-1" width="128.666" height="44.12" rx="22.06" transform="translate(9 6)"/>
    </g>
    <g id="Grupo_248" data-name="Grupo 248" transform="translate(0.839 371.327)">
      <path id="Trazado_1787" data-name="Trazado 1787" class="cls-2" d="M63.9,403.064a7.355,7.355,0,0,1,7.281-1.838,6.4,6.4,0,0,1,1.649.732,9.913,9.913,0,0,1,1.146.867,4.827,4.827,0,0,1,.712.747l.229.309-1.026.916q-.06-.1-.179-.264a5.633,5.633,0,0,0-.558-.583,5.4,5.4,0,0,0-2.3-1.335,5.692,5.692,0,0,0-1.753-.269,5.586,5.586,0,0,0-4.134,1.7,6.115,6.115,0,0,0,0,8.427,5.586,5.586,0,0,0,4.134,1.7,5.986,5.986,0,0,0,1.753-.254,5.464,5.464,0,0,0,1.39-.612,9.661,9.661,0,0,0,.971-.712,3.242,3.242,0,0,0,.6-.623L74,411.73l1.016.926a3.665,3.665,0,0,1-.244.314,9.343,9.343,0,0,1-.727.7,8.89,8.89,0,0,1-1.19.907,6.889,6.889,0,0,1-1.648.712A7.348,7.348,0,0,1,63.9,403.064Z" transform="translate(-61.762 -400.922)"/>
      <path id="Trazado_1788" data-name="Trazado 1788" class="cls-2" d="M113.655,418.32a2.367,2.367,0,0,0-.687-1.763,2.407,2.407,0,0,0-1.763-.677,3.126,3.126,0,0,0-1.459.353,3.226,3.226,0,0,0-.991.722l-.309.349-.917-.916q.06-.08.165-.2a5.358,5.358,0,0,1,.458-.438,6,6,0,0,1,.742-.563,4.181,4.181,0,0,1,1.021-.443,4.366,4.366,0,0,1,1.29-.194,3.789,3.789,0,0,1,2.774,1.086,3.629,3.629,0,0,1,1.1,2.69v6.225h-1.424v-1.325q-.04.06-.124.164a4.888,4.888,0,0,1-1.011.837,3.771,3.771,0,0,1-.892.364,4.093,4.093,0,0,1-1.14.159,3.635,3.635,0,0,1-2.466-.867,2.571,2.571,0,0,1-1-1.982,2.7,2.7,0,0,1,.737-1.978,3.73,3.73,0,0,1,2.122-.981Zm-.891,4.194a3.212,3.212,0,0,0,.891-2.351v-.618l-3.367.618q-1.833.348-1.843,1.733a1.338,1.338,0,0,0,.543,1.09,2.342,2.342,0,0,0,1.5.434A3.056,3.056,0,0,0,112.764,422.514Z" transform="translate(-92.129 -410.062)"/>
      <path id="Trazado_1789" data-name="Trazado 1789" class="cls-2" d="M142.835,416.179q.04-.06.12-.169a3.935,3.935,0,0,1,.378-.4,4.062,4.062,0,0,1,.632-.5,4.063,4.063,0,0,1,2.027-.563,3.821,3.821,0,0,1,2.879,1.145,4.191,4.191,0,0,1,1.106,3.038v5.817h-1.434v-5.817a2.879,2.879,0,0,0-.742-2.067,2.513,2.513,0,0,0-1.908-.782,2.9,2.9,0,0,0-2.182.916,3.248,3.248,0,0,0-.877,2.341v5.409h-1.424v-9.792h1.424Z" transform="translate(-115.203 -410.062)"/>
      <path id="Trazado_1790" data-name="Trazado 1790" class="cls-2" d="M172.349,406.65h1.424v11.216q0,2.859-2.65,2.859a2.492,2.492,0,0,1-.633-.08,2.19,2.19,0,0,1-.453-.16l-.14-.069v-1.325a2.107,2.107,0,0,0,1.116.309q1.335,0,1.335-1.534Zm.055-3.92a.938.938,0,1,1-.264.652A.886.886,0,0,1,172.4,402.73Z" transform="translate(-134.317 -401.958)"/>
      <path id="Trazado_1791" data-name="Trazado 1791" class="cls-2" d="M190.849,420.163a3.527,3.527,0,0,0,3.466,3.258,3.646,3.646,0,0,0,1.7-.409,3.5,3.5,0,0,0,1.115-.817l.349-.4.916.916c-.04.053-.1.128-.174.224a5.024,5.024,0,0,1-.5.488,5.291,5.291,0,0,1-.827.608,5.584,5.584,0,0,1-1.145.488,4.7,4.7,0,0,1-1.44.224,4.637,4.637,0,0,1-3.447-1.489,5.256,5.256,0,0,1-.014-7.222,4.629,4.629,0,0,1,6.709-.1,4.844,4.844,0,0,1,1.345,3.511l-.1.737Zm1.126-3.377a3.557,3.557,0,0,0-1.126,2.152h6.634a3.5,3.5,0,0,0-1.071-2.192,3.073,3.073,0,0,0-2.2-.866A3.153,3.153,0,0,0,191.975,416.786Z" transform="translate(-147.418 -410.062)"/>
      <path id="Trazado_1792" data-name="Trazado 1792" class="cls-2" d="M230.449,418.32a2.367,2.367,0,0,0-.687-1.763A2.407,2.407,0,0,0,228,415.88a3.126,3.126,0,0,0-1.459.353,3.226,3.226,0,0,0-.991.722l-.309.349-.917-.916q.06-.08.165-.2a5.363,5.363,0,0,1,.458-.438,6.006,6.006,0,0,1,.742-.563,4.181,4.181,0,0,1,1.021-.443,4.365,4.365,0,0,1,1.29-.194,3.789,3.789,0,0,1,2.775,1.086,3.629,3.629,0,0,1,1.1,2.69v6.225h-1.424v-1.325c-.027.04-.068.094-.124.164a4.889,4.889,0,0,1-1.012.837,3.771,3.771,0,0,1-.892.364,4.093,4.093,0,0,1-1.14.159,3.637,3.637,0,0,1-2.466-.867,2.572,2.572,0,0,1-1-1.982,2.7,2.7,0,0,1,.737-1.978,3.73,3.73,0,0,1,2.122-.981Zm-.891,4.194a3.211,3.211,0,0,0,.891-2.351v-.618l-3.367.618q-1.833.348-1.843,1.733a1.338,1.338,0,0,0,.543,1.09,2.342,2.342,0,0,0,1.5.434A3.056,3.056,0,0,0,229.558,422.514Z" transform="translate(-170.493 -410.062)"/>
      <path id="Trazado_1793" data-name="Trazado 1793" class="cls-2" d="M263.306,415.979h-.618a2.98,2.98,0,0,0-2.161.877,3.049,3.049,0,0,0-.9,2.281v5.409h-1.424v-9.792h1.424v1.325q.04-.06.119-.164a3.363,3.363,0,0,1,.379-.369,4.226,4.226,0,0,1,.643-.469,3.947,3.947,0,0,1,.916-.368,4.354,4.354,0,0,1,1.21-.165h.408Z" transform="translate(-193.567 -410.062)"/>
    </g>
  </g>
</svg>
