<svg xmlns="http://www.w3.org/2000/svg" xmlns:xlink="http://www.w3.org/1999/xlink" width="195.333" height="67.744" viewBox="0 0 195.333 67.744">
  <defs>
    <style>
      .cls-1 {
        fill: #ff0047;
      }

      .cls-2 {
        fill: #fff;
      }

      .cls-3 {
        fill: #f6f6f6;
      }

      .cls-4 {
        filter: url(#Rectángulo_236);
      }
    </style>
    <filter id="Rectángulo_236" x="0" y="0" width="195.333" height="67.744" filterUnits="userSpaceOnUse">
      <feOffset dy="3" input="SourceAlpha"/>
      <feGaussianBlur stdDeviation="3" result="blur"/>
      <feFlood flood-opacity="0.161"/>
      <feComposite operator="in" in2="blur"/>
      <feComposite in="SourceGraphic"/>
    </filter>
  </defs>
  <g id="Grupo_230" data-name="Grupo 230" transform="translate(-378 332)">
    <g class="cls-4" transform="matrix(1, 0, 0, 1, 378, -332)">
      <rect id="Rectángulo_236-2" data-name="Rectángulo 236" class="cls-1" width="177.333" height="49.744" rx="24.872" transform="translate(9 6)"/>
    </g>
    <g id="Grupo_213" data-name="Grupo 213" transform="translate(443.659 -309.636)">
      <path id="Trazado_1720" data-name="Trazado 1720" class="cls-2" d="M542.137-279.476A7.982,7.982,0,0,1,548-281.891a8,8,0,0,1,2.347.343,7.223,7.223,0,0,1,1.859.825,11.184,11.184,0,0,1,1.292.977,5.423,5.423,0,0,1,.8.842l.258.348-1.157,1.033q-.067-.112-.2-.3a6.273,6.273,0,0,0-.629-.657,6.821,6.821,0,0,0-1.072-.837,6.767,6.767,0,0,0-1.522-.668,6.418,6.418,0,0,0-1.977-.3,6.3,6.3,0,0,0-4.661,1.921,6.493,6.493,0,0,0-1.9,4.751,6.493,6.493,0,0,0,1.9,4.751,6.3,6.3,0,0,0,4.661,1.92,6.763,6.763,0,0,0,1.977-.286,6.187,6.187,0,0,0,1.567-.69,10.927,10.927,0,0,0,1.095-.8,3.641,3.641,0,0,0,.674-.7l.213-.281,1.146,1.044a4.211,4.211,0,0,1-.275.354,10.579,10.579,0,0,1-.82.792,9.934,9.934,0,0,1-1.342,1.022,7.736,7.736,0,0,1-1.858.8,8.055,8.055,0,0,1-2.376.354,7.983,7.983,0,0,1-5.863-2.414,7.983,7.983,0,0,1-2.414-5.863A7.984,7.984,0,0,1,542.137-279.476Z" transform="translate(-539.723 281.891)"/>
      <path id="Trazado_1721" data-name="Trazado 1721" class="cls-2" d="M586.626-266.6a5.4,5.4,0,0,1,3.993-1.668,5.38,5.38,0,0,1,3.987,1.668,5.607,5.607,0,0,1,1.64,4.088,5.59,5.59,0,0,1-1.64,4.082,5.391,5.391,0,0,1-3.987,1.662,5.409,5.409,0,0,1-3.993-1.662,5.58,5.58,0,0,1-1.645-4.082A5.6,5.6,0,0,1,586.626-266.6Zm6.828,1.067a3.807,3.807,0,0,0-2.841-1.23,3.807,3.807,0,0,0-2.841,1.23,4.18,4.18,0,0,0-1.185,3.015,4.2,4.2,0,0,0,1.185,3.016,3.79,3.79,0,0,0,2.841,1.241,3.8,3.8,0,0,0,2.841-1.23,4.186,4.186,0,0,0,1.185-3.021A4.187,4.187,0,0,0,593.455-265.533Z" transform="translate(-568.191 273.322)"/>
      <path id="Trazado_1722" data-name="Trazado 1722" class="cls-2" d="M637.809-263.551a3.415,3.415,0,0,0-.758-2.375,2.562,2.562,0,0,0-1.994-.837,2.713,2.713,0,0,0-2.134,1,3.945,3.945,0,0,0-.865,2.673v6.1h-1.606v-6.559a3.424,3.424,0,0,0-.758-2.364,2.559,2.559,0,0,0-2-.848,2.7,2.7,0,0,0-2.128,1,3.96,3.96,0,0,0-.859,2.673v6.1H623.1v-11.04H624.7v1.382c.03-.045.067-.1.112-.174a2.887,2.887,0,0,1,.342-.382,3.737,3.737,0,0,1,.612-.494,3.7,3.7,0,0,1,.876-.393,3.741,3.741,0,0,1,1.157-.174,4.5,4.5,0,0,1,1.388.208,3.609,3.609,0,0,1,1.022.483,4.714,4.714,0,0,1,.651.567,3.19,3.19,0,0,1,.4.494l.112.213q.045-.067.124-.207a2.864,2.864,0,0,1,.416-.477,5.019,5.019,0,0,1,.724-.6,4,4,0,0,1,1.067-.471,4.98,4.98,0,0,1,1.466-.208,4.048,4.048,0,0,1,3.072,1.247,4.835,4.835,0,0,1,1.185,3.47v6.559h-1.617Z" transform="translate(-592.166 273.322)"/>
      <path id="Trazado_1723" data-name="Trazado 1723" class="cls-2" d="M678.619-252.162h-1.606v-15.87h1.606v1.73c.03-.045.084-.114.163-.207a6.357,6.357,0,0,1,.483-.477,5.146,5.146,0,0,1,.792-.6,4.811,4.811,0,0,1,1.1-.471,4.6,4.6,0,0,1,1.376-.208,4.927,4.927,0,0,1,3.7,1.7,5.731,5.731,0,0,1,1.589,4.06,5.721,5.721,0,0,1-1.584,4.054,4.927,4.927,0,0,1-3.706,1.69,4.6,4.6,0,0,1-1.364-.2,4.688,4.688,0,0,1-1.106-.483,6.316,6.316,0,0,1-.781-.567,4.507,4.507,0,0,1-.5-.489l-.157-.213Zm1.207-7.373a3.65,3.65,0,0,0,2.7,1.275,3.387,3.387,0,0,0,2.555-1.241,4.315,4.315,0,0,0,1.128-3.01,4.313,4.313,0,0,0-1.128-3.01,3.386,3.386,0,0,0-2.555-1.241,3.651,3.651,0,0,0-2.7,1.275,4.192,4.192,0,0,0-1.207,2.976A4.193,4.193,0,0,0,679.826-259.536Z" transform="translate(-626.08 273.322)"/>
      <path id="Trazado_1724" data-name="Trazado 1724" class="cls-2" d="M719.636-266.65h-.7a3.359,3.359,0,0,0-2.437.988,3.438,3.438,0,0,0-1.01,2.572v6.1h-1.606v-11.04h1.606v1.494q.045-.068.135-.185a3.785,3.785,0,0,1,.427-.416,4.739,4.739,0,0,1,.725-.528,4.427,4.427,0,0,1,1.033-.416,4.908,4.908,0,0,1,1.364-.186h.46Z" transform="translate(-649.273 273.322)"/>
      <path id="Trazado_1725" data-name="Trazado 1725" class="cls-2" d="M740.559-264.011a2.667,2.667,0,0,0-.775-1.988,2.713,2.713,0,0,0-1.988-.764,3.526,3.526,0,0,0-1.645.4,3.639,3.639,0,0,0-1.117.815l-.348.393-1.033-1.033q.067-.09.185-.23a6.047,6.047,0,0,1,.517-.494,6.676,6.676,0,0,1,.837-.634,4.714,4.714,0,0,1,1.151-.5,4.933,4.933,0,0,1,1.454-.219,4.272,4.272,0,0,1,3.128,1.224,4.091,4.091,0,0,1,1.241,3.032v7.02h-1.606v-1.494q-.045.067-.14.185a4.64,4.64,0,0,1-.427.415,4.686,4.686,0,0,1-.713.528,4.242,4.242,0,0,1-1.005.41,4.616,4.616,0,0,1-1.286.18,4.1,4.1,0,0,1-2.78-.977,2.9,2.9,0,0,1-1.129-2.235,3.05,3.05,0,0,1,.831-2.23,4.209,4.209,0,0,1,2.393-1.106Zm-1.005,4.728a3.619,3.619,0,0,0,1.005-2.65v-.7l-3.8.7q-2.067.393-2.078,1.954a1.51,1.51,0,0,0,.613,1.23,2.639,2.639,0,0,0,1.69.489A3.445,3.445,0,0,0,739.554-259.283Z" transform="translate(-661.346 273.322)"/>
      <path id="Trazado_1726" data-name="Trazado 1726" class="cls-2" d="M773.22-266.65h-.7a3.358,3.358,0,0,0-2.437.988,3.438,3.438,0,0,0-1.011,2.572v6.1H767.47v-11.04h1.606v1.494q.045-.068.135-.185a3.783,3.783,0,0,1,.427-.416,4.745,4.745,0,0,1,.724-.528,4.43,4.43,0,0,1,1.033-.416,4.908,4.908,0,0,1,1.365-.186h.46Z" transform="translate(-682.978 273.322)"/>
    </g>
    <g id="Grupo_229" data-name="Grupo 229" transform="translate(408.996 -318.476)">
      <g id="Grupo_216" data-name="Grupo 216">
        <g id="Grupo_215" data-name="Grupo 215">
          <g id="Grupo_214" data-name="Grupo 214">
            <path id="Trazado_1727" data-name="Trazado 1727" class="cls-3" d="M468.635-303.06a.531.531,0,0,0-.238-.711l-3.8-1.891a.53.53,0,0,0-.711.238l-2.976,5.974-1.5-4.475a.53.53,0,0,0-.671-.334l-3.886,1.3a.53.53,0,0,0-.335.671,2.122,2.122,0,0,1-1.338,2.686,2.122,2.122,0,0,1-2.686-1.338.53.53,0,0,0-.671-.334l-3.175,1.064a.53.53,0,0,0-.334.671l5.887,17.57-2.03,4.076a.53.53,0,0,0,.238.711l3.8,1.891a.53.53,0,0,0,.711-.238,2.122,2.122,0,0,1,2.845-.953,2.121,2.121,0,0,1,.953,2.845.53.53,0,0,0,.238.711l3.8,1.892a.53.53,0,0,0,.711-.238L477.179-298.8a.53.53,0,0,0-.238-.711l-3.8-1.892a.53.53,0,0,0-.711.238,2.121,2.121,0,0,1-2.845.953A2.121,2.121,0,0,1,468.635-303.06Zm-21.144,3.688,2.21-.74A3.182,3.182,0,0,0,454-298.8a3.182,3.182,0,0,0,1.649-3.311l2.922-.979,1.668,4.978-.75,1.506-.546-1.631a.531.531,0,0,0-.672-.334l-7.823,2.621a.531.531,0,0,0-.334.672l3.5,10.459-.75,1.506Zm11.333,4.113-4.534,9.1-3-8.951,6.817-2.284Zm10.781-3.808a3.182,3.182,0,0,0,3.5-1.173l2.888,1.438L474.1-295l-1.9-.946-.473.949,1.9.946-8.512,17.09-.474-.237-.473.95.475.236-1.892,3.8-2.888-1.438a3.182,3.182,0,0,0-2.117-3.971,3.182,3.182,0,0,0-3.5,1.173l-2.888-1.438,1.892-3.8,1.424.709.473-.949-1.424-.709L464.6-304.477l2.888,1.438A3.182,3.182,0,0,0,469.605-299.068Z" transform="translate(-446.289 305.718)"/>
          </g>
        </g>
      </g>
      <g id="Grupo_219" data-name="Grupo 219" transform="translate(16.896 5.512)">
        <g id="Grupo_218" data-name="Grupo 218" transform="translate(0 0)">
          <g id="Grupo_217" data-name="Grupo 217">
            <rect id="Rectángulo_237" data-name="Rectángulo 237" class="cls-3" width="1.061" height="2.121" transform="translate(0 0.949) rotate(-63.522)"/>
          </g>
        </g>
      </g>
      <g id="Grupo_222" data-name="Grupo 222" transform="translate(19.744 6.931)">
        <g id="Grupo_221" data-name="Grupo 221" transform="translate(0 0)">
          <g id="Grupo_220" data-name="Grupo 220">
            <rect id="Rectángulo_238" data-name="Rectángulo 238" class="cls-3" width="1.061" height="2.121" transform="translate(0 0.949) rotate(-63.522)"/>
          </g>
        </g>
      </g>
      <g id="Grupo_225" data-name="Grupo 225" transform="translate(22.592 8.349)">
        <g id="Grupo_224" data-name="Grupo 224" transform="translate(0 0)">
          <g id="Grupo_223" data-name="Grupo 223">
            <rect id="Rectángulo_239" data-name="Rectángulo 239" class="cls-3" width="1.061" height="2.121" transform="translate(0 0.949) rotate(-63.522)"/>
          </g>
        </g>
      </g>
      <g id="Grupo_228" data-name="Grupo 228" transform="translate(9.983 8.776)">
        <g id="Grupo_227" data-name="Grupo 227">
          <g id="Grupo_226" data-name="Grupo 226">
            <path id="Trazado_1728" data-name="Trazado 1728" class="cls-3" d="M480.59-281.769a1.061,1.061,0,0,1-1.422.476.53.53,0,0,0-.711.238l-5.2,10.444a.53.53,0,0,0,.238.711,1.061,1.061,0,0,1,.477,1.422.53.53,0,0,0,.238.711l5.7,2.837a.531.531,0,0,0,.711-.238,1.06,1.06,0,0,1,1.422-.477.53.53,0,0,0,.711-.238l5.2-10.443a.53.53,0,0,0-.238-.711,1.061,1.061,0,0,1-.476-1.422.531.531,0,0,0-.238-.711l-5.7-2.837A.53.53,0,0,0,480.59-281.769Zm5.52,3.342a2.13,2.13,0,0,0,.684,2.044l-4.788,9.614a2.13,2.13,0,0,0-2.044.685l-4.867-2.424a2.13,2.13,0,0,0-.685-2.044l4.789-9.614a2.129,2.129,0,0,0,2.044-.684Z" transform="translate(-473.199 282.063)"/>
          </g>
        </g>
      </g>
    </g>
  </g>
</svg>
