<svg xmlns="http://www.w3.org/2000/svg" xmlns:xlink="http://www.w3.org/1999/xlink" width="156" height="117" viewBox="0 0 156 117">
  <defs>
    <style>
      .cls-1 {
        fill: #fff;
      }

      .cls-2 {
        fill: #17315a;
      }

      .cls-3 {
        filter: url(#Rect치ngulo_241);
      }
    </style>
    <filter id="Rect치ngulo_241" x="0" y="0" width="156" height="117" filterUnits="userSpaceOnUse">
      <feOffset dy="3" input="SourceAlpha"/>
      <feGaussianBlur stdDeviation="3" result="blur"/>
      <feFlood flood-opacity="0.161"/>
      <feComposite operator="in" in2="blur"/>
      <feComposite in="SourceGraphic"/>
    </filter>
  </defs>
  <g id="Grupo_235" data-name="Grupo 235" transform="translate(-1365 410.864)">
    <g class="cls-3" transform="matrix(1, 0, 0, 1, 1365, -410.86)">
      <rect id="Rect치ngulo_241-2" data-name="Rect치ngulo 241" class="cls-1" width="138" height="99" rx="12" transform="translate(9 6)"/>
    </g>
    <g id="Grupo_234" data-name="Grupo 234" transform="translate(1404.483 -394.751)">
      <g id="Grupo_232" data-name="Grupo 232" transform="translate(0 60.77)">
        <path id="Trazado_1730" data-name="Trazado 1730" class="cls-2" d="M1455.6-228.054a4.7,4.7,0,0,1,3.436,1.343,4.507,4.507,0,0,1,1.364,3.347,4.516,4.516,0,0,1-1.369,3.352,4.691,4.691,0,0,1-3.431,1.349h-4.05v5.539h-1.6v-14.93Zm-4.05,1.5v6.392h4.05a3.14,3.14,0,0,0,2.322-.874,3.14,3.14,0,0,0,.875-2.322,3.139,3.139,0,0,0-.875-2.322,3.138,3.138,0,0,0-2.322-.875Z" transform="translate(-1449.95 228.054)"/>
        <path id="Trazado_1731" data-name="Trazado 1731" class="cls-2" d="M1481.452-211.027a3.511,3.511,0,0,0,1.14,2.395,3.476,3.476,0,0,0,2.483,1.01,3.809,3.809,0,0,0,1.781-.427,3.663,3.663,0,0,0,1.166-.854l.364-.416.958.958c-.042.056-.1.134-.182.234a5.206,5.206,0,0,1-.521.511,5.563,5.563,0,0,1-.864.635,5.869,5.869,0,0,1-1.2.51,4.92,4.92,0,0,1-1.5.234,4.843,4.843,0,0,1-3.6-1.556,5.221,5.221,0,0,1-1.51-3.774,5.249,5.249,0,0,1,1.494-3.774,4.716,4.716,0,0,1,3.513-1.556,4.669,4.669,0,0,1,3.5,1.453,5.063,5.063,0,0,1,1.406,3.67l-.1.771Zm1.176-3.529a3.718,3.718,0,0,0-1.176,2.249h6.933a3.657,3.657,0,0,0-1.119-2.29,3.212,3.212,0,0,0-2.3-.906A3.294,3.294,0,0,0,1482.628-214.557Z" transform="translate(-1467.917 221.376)"/>
        <path id="Trazado_1732" data-name="Trazado 1732" class="cls-2" d="M1513.047-213.124h-1.489v-14.93h1.489Z" transform="translate(-1486.831 228.054)"/>
        <path id="Trazado_1733" data-name="Trazado 1733" class="cls-2" d="M1524.035-223.358h1.489v10.234h-1.489Zm1.7-4.7h1.6l-2.031,2.884h-1.166Z" transform="translate(-1494.3 228.054)"/>
        <path id="Trazado_1734" data-name="Trazado 1734" class="cls-2" d="M1535.9-215.343a4.851,4.851,0,0,1,3.6-1.556,4.941,4.941,0,0,1,2.234.515,4.888,4.888,0,0,1,1.483,1.025l.448.49-1.072,1.062c-.028-.042-.07-.1-.125-.177a5.459,5.459,0,0,0-.37-.417,3.7,3.7,0,0,0-.62-.525,3.6,3.6,0,0,0-.864-.4,3.5,3.5,0,0,0-1.114-.177,3.389,3.389,0,0,0-2.545,1.14,3.924,3.924,0,0,0-1.077,2.8,3.924,3.924,0,0,0,1.077,2.8,3.389,3.389,0,0,0,2.545,1.14,3.562,3.562,0,0,0,1.7-.427,4.017,4.017,0,0,0,1.166-.854l.344-.416,1.062.958c-.042.056-.106.134-.193.234a6.155,6.155,0,0,1-.547.511,6.362,6.362,0,0,1-.875.635,5.762,5.762,0,0,1-1.182.51,4.759,4.759,0,0,1-1.474.234,4.844,4.844,0,0,1-3.6-1.556,5.222,5.222,0,0,1-1.51-3.774A5.211,5.211,0,0,1,1535.9-215.343Z" transform="translate(-1500.496 221.376)"/>
        <path id="Trazado_1735" data-name="Trazado 1735" class="cls-2" d="M1571.048-207.5c-.027.042-.069.1-.125.172a3.616,3.616,0,0,1-.39.385,4.385,4.385,0,0,1-.661.49,3.94,3.94,0,0,1-.932.38,4.28,4.28,0,0,1-1.193.167,3.925,3.925,0,0,1-2.972-1.244,4.5,4.5,0,0,1-1.182-3.233v-5.965h1.489v5.965a3.084,3.084,0,0,0,.833,2.218,2.709,2.709,0,0,0,2.041.875,2.891,2.891,0,0,0,2.2-.958,3.441,3.441,0,0,0,.9-2.447v-5.653h1.5v10.234h-1.5Z" transform="translate(-1517.982 221.05)"/>
        <path id="Trazado_1736" data-name="Trazado 1736" class="cls-2" d="M1596.418-213.124h-1.489v-14.93h1.489Z" transform="translate(-1536.74 228.054)"/>
        <path id="Trazado_1737" data-name="Trazado 1737" class="cls-2" d="M1612.472-212.953a2.472,2.472,0,0,0-.719-1.843,2.514,2.514,0,0,0-1.843-.708,3.27,3.27,0,0,0-1.525.37,3.367,3.367,0,0,0-1.036.755l-.323.364-.958-.958c.042-.055.1-.126.172-.213a5.5,5.5,0,0,1,.479-.458,6.247,6.247,0,0,1,.776-.588,4.368,4.368,0,0,1,1.067-.464,4.584,4.584,0,0,1,1.348-.2,3.96,3.96,0,0,1,2.9,1.135,3.791,3.791,0,0,1,1.15,2.811v6.507h-1.489v-1.385c-.028.042-.071.1-.13.172a4.237,4.237,0,0,1-.4.385,4.362,4.362,0,0,1-.661.49,3.931,3.931,0,0,1-.932.38,4.277,4.277,0,0,1-1.192.167,3.8,3.8,0,0,1-2.576-.906,2.686,2.686,0,0,1-1.047-2.072,2.824,2.824,0,0,1,.771-2.066,3.9,3.9,0,0,1,2.218-1.026Zm-.932,4.383a3.357,3.357,0,0,0,.932-2.458v-.645l-3.519.645q-1.916.365-1.926,1.812a1.4,1.4,0,0,0,.567,1.14,2.449,2.449,0,0,0,1.567.453A3.194,3.194,0,0,0,1611.54-208.57Z" transform="translate(-1543.091 221.376)"/>
        <path id="Trazado_1738" data-name="Trazado 1738" class="cls-2" d="M1638.674-214.442a2.522,2.522,0,0,0-.245-.3,3.1,3.1,0,0,0-.745-.468,2.713,2.713,0,0,0-1.249-.3,2.075,2.075,0,0,0-1.385.448,1.332,1.332,0,0,0-.531,1.041,1.137,1.137,0,0,0,.573.989,4.9,4.9,0,0,0,1.385.6q.812.224,1.624.51a3.261,3.261,0,0,1,1.385.937,2.421,2.421,0,0,1,.572,1.66,2.8,2.8,0,0,1-1.01,2.2,3.994,3.994,0,0,1-2.718.879,4.844,4.844,0,0,1-1.369-.187,4.258,4.258,0,0,1-1.057-.448,5.877,5.877,0,0,1-.723-.526,3.435,3.435,0,0,1-.453-.453l-.136-.2,1.073-1.062c.028.041.066.1.114.161a3.976,3.976,0,0,0,.328.354,4.049,4.049,0,0,0,.547.458,3.039,3.039,0,0,0,.75.359,2.845,2.845,0,0,0,.926.156,2.543,2.543,0,0,0,1.661-.478,1.514,1.514,0,0,0,.578-1.219,1.213,1.213,0,0,0-.578-1.036,4.713,4.713,0,0,0-1.385-.635q-.807-.234-1.619-.521a3.423,3.423,0,0,1-1.39-.905,2.249,2.249,0,0,1-.578-1.6,2.627,2.627,0,0,1,.974-2.02,3.541,3.541,0,0,1,2.441-.864,4.824,4.824,0,0,1,1.161.14,3.832,3.832,0,0,1,.932.344,5.921,5.921,0,0,1,.651.417,3.99,3.99,0,0,1,.411.338l.156.157Z" transform="translate(-1559.288 221.376)"/>
      </g>
      <g id="Grupo_233" data-name="Grupo 233" transform="translate(17.027 0)">
        <path id="Trazado_1739" data-name="Trazado 1739" class="cls-2" d="M1537.142-335.468a6.182,6.182,0,0,1-6.175-6.175c0-.007,0-.013,0-.02a22.3,22.3,0,0,0,6.179-15.418,22.41,22.41,0,0,0-22.384-22.384,22.41,22.41,0,0,0-22.384,22.384,22.41,22.41,0,0,0,22.384,22.384,22.288,22.288,0,0,0,14.791-5.6,7.725,7.725,0,0,0,7.593,6.376.771.771,0,0,0,.772-.772A.771.771,0,0,0,1537.142-335.468Zm-43.225-21.613a20.864,20.864,0,0,1,20.841-20.84,20.864,20.864,0,0,1,20.84,20.84,20.864,20.864,0,0,1-20.84,20.841A20.864,20.864,0,0,1,1493.918-357.08Z" transform="translate(-1492.374 379.464)"/>
        <path id="Trazado_1740" data-name="Trazado 1740" class="cls-2" d="M1519.364-371.772a19.318,19.318,0,0,0-19.3,19.3,19.318,19.318,0,0,0,19.3,19.3,19.318,19.318,0,0,0,19.3-19.3A19.319,19.319,0,0,0,1519.364-371.772Zm0,37.05a17.772,17.772,0,0,1-17.753-17.753,17.772,17.772,0,0,1,17.753-17.753,17.772,17.772,0,0,1,17.753,17.753A17.772,17.772,0,0,1,1519.364-334.722Z" transform="translate(-1496.979 374.859)"/>
        <path id="Trazado_1741" data-name="Trazado 1741" class="cls-2" d="M1563.163-337.156a5.366,5.366,0,0,0-.753.059l-.018-.032-.579.148-.023.008a5.335,5.335,0,0,0-.826.289l-.034.016a5.3,5.3,0,0,0-.744.41l-.019.012a5.36,5.36,0,0,0-.615.486l-.118.106a5.483,5.483,0,0,0-.5.549c-.033.042-.063.085-.1.128a5.379,5.379,0,0,0-.421.643s-.006.01-.008.015a5.455,5.455,0,0,0-.318.719c-.016.044-.033.088-.049.133a5.427,5.427,0,0,0-.193.751c-.008.048-.014.1-.022.145a5.481,5.481,0,0,0-.068.819,5.478,5.478,0,0,0,.069.82c.008.049.013.1.023.145a5.312,5.312,0,0,0,.193.751c.015.045.032.088.049.132a5.352,5.352,0,0,0,.318.72l.008.014a5.352,5.352,0,0,0,.42.643c.032.043.063.086.1.128a5.348,5.348,0,0,0,.5.549c.039.036.078.071.118.106a5.412,5.412,0,0,0,.616.486l.019.012a5.478,5.478,0,0,0,.744.41c.012.005.022.012.034.016a5.284,5.284,0,0,0,.825.289l.023.008.579.148.018-.032a5.37,5.37,0,0,0,.753.059,5.41,5.41,0,0,0,5.4-5.4A5.41,5.41,0,0,0,1563.163-337.156Zm-.772,5.4a8.5,8.5,0,0,1-.771,3.533,3.808,3.808,0,0,1-.551-.3c-.063-.04-.119-.086-.179-.13a4.014,4.014,0,0,1-.361-.3c-.053-.049-.1-.1-.153-.149a4.069,4.069,0,0,1-.36-.435c-.019-.028-.043-.052-.062-.08a3.833,3.833,0,0,1-.317-.582c-.025-.058-.045-.119-.069-.178a3.822,3.822,0,0,1-.151-.484c-.016-.066-.033-.133-.045-.2a3.885,3.885,0,0,1-.069-.7,3.818,3.818,0,0,1,.07-.7c.012-.068.029-.134.045-.2a3.761,3.761,0,0,1,.151-.484c.023-.059.043-.12.069-.178a3.83,3.83,0,0,1,.317-.582c.018-.028.042-.052.062-.08a3.731,3.731,0,0,1,.36-.435c.049-.052.1-.1.152-.149a3.679,3.679,0,0,1,.362-.3c.059-.043.116-.09.179-.13a3.947,3.947,0,0,1,.551-.3A8.517,8.517,0,0,1,1562.391-331.753Zm.772,3.859h-.011a10.037,10.037,0,0,0,.783-3.859,10.033,10.033,0,0,0-.783-3.858h.011a3.864,3.864,0,0,1,3.859,3.859A3.864,3.864,0,0,1,1563.163-327.893Z" transform="translate(-1531.517 354.137)"/>
        <path id="Trazado_1742" data-name="Trazado 1742" class="cls-2" d="M1521.237-328.4c.033-.042.063-.085.1-.127a5.469,5.469,0,0,0,.42-.642l.009-.017a5.361,5.361,0,0,0,.317-.719c.016-.044.033-.087.049-.132a5.246,5.246,0,0,0,.193-.752c.008-.048.015-.1.023-.144a5.534,5.534,0,0,0,.068-.82,5.411,5.411,0,0,0-.069-.82c-.008-.049-.013-.1-.022-.145a5.347,5.347,0,0,0-.193-.752c-.015-.045-.032-.088-.049-.133a5.306,5.306,0,0,0-.317-.718l-.009-.017a5.489,5.489,0,0,0-.42-.643c-.032-.043-.063-.086-.1-.128a5.411,5.411,0,0,0-.5-.549c-.039-.036-.078-.071-.117-.106a5.385,5.385,0,0,0-.616-.486l-.018-.011a5.511,5.511,0,0,0-.744-.41l-.035-.017a5.37,5.37,0,0,0-.826-.289l-.022-.008-.579-.148-.018.032a5.456,5.456,0,0,0-.753-.058,5.41,5.41,0,0,0-5.4,5.4,5.41,5.41,0,0,0,5.4,5.4,5.359,5.359,0,0,0,.753-.059l.018.032.579-.148.022-.008a5.248,5.248,0,0,0,.825-.289l.035-.017a5.418,5.418,0,0,0,.744-.41l.018-.011a5.429,5.429,0,0,0,.616-.486c.039-.035.079-.07.117-.106A5.477,5.477,0,0,0,1521.237-328.4Zm-.44-2.657c-.012.068-.029.134-.046.2a3.764,3.764,0,0,1-.151.484c-.023.059-.043.12-.069.178a3.84,3.84,0,0,1-.316.582c-.019.028-.043.053-.062.08a3.737,3.737,0,0,1-.36.435c-.049.052-.1.1-.153.149a3.786,3.786,0,0,1-.361.3c-.059.043-.116.09-.179.13a3.9,3.9,0,0,1-.551.3,8.516,8.516,0,0,1-.771-3.533,8.5,8.5,0,0,1,.771-3.533,3.949,3.949,0,0,1,.551.3c.062.04.119.087.179.13a4.065,4.065,0,0,1,.361.3c.053.049.1.1.153.149a4.064,4.064,0,0,1,.36.435c.019.028.042.052.062.08a3.881,3.881,0,0,1,.316.582c.026.058.046.119.069.178a3.761,3.761,0,0,1,.151.484c.016.066.033.132.046.2a3.9,3.9,0,0,1,.069.7A3.819,3.819,0,0,1,1520.8-331.057Zm-7.648-.7a3.863,3.863,0,0,1,3.859-3.859h.011a10.04,10.04,0,0,0-.783,3.858,10.044,10.044,0,0,0,.783,3.859h-.011A3.864,3.864,0,0,1,1513.149-331.753Z" transform="translate(-1503.886 354.137)"/>
        <path id="Trazado_1743" data-name="Trazado 1743" class="cls-2" d="M1534.71-354.059l.148.579c0,.008.006.015.008.022a5.277,5.277,0,0,0,.289.825c.005.012.012.022.016.034a5.391,5.391,0,0,0,.41.744l.012.019a5.5,5.5,0,0,0,.486.616l.106.118a5.476,5.476,0,0,0,.549.5c.042.033.085.064.127.1a5.4,5.4,0,0,0,.644.421l.014.008a5.449,5.449,0,0,0,.72.318l.132.049a5.415,5.415,0,0,0,.751.193c.048.008.1.014.145.022a5.527,5.527,0,0,0,.82.068,5.465,5.465,0,0,0,.82-.069c.049-.008.1-.013.145-.022a5.333,5.333,0,0,0,.751-.193c.044-.015.088-.032.133-.049a5.352,5.352,0,0,0,.719-.318l.014-.008a5.315,5.315,0,0,0,.644-.421c.042-.032.086-.063.128-.1a5.413,5.413,0,0,0,.549-.5l.106-.118a5.38,5.38,0,0,0,.486-.615l.012-.019a5.468,5.468,0,0,0,.41-.744c.006-.012.012-.022.016-.034a5.38,5.38,0,0,0,.289-.826c0-.008.005-.014.008-.022l.148-.579-.032-.018a5.5,5.5,0,0,0,.058-.753,5.41,5.41,0,0,0-5.4-5.4,5.41,5.41,0,0,0-5.4,5.4,5.368,5.368,0,0,0,.059.753Zm8.61,1.323c-.04.063-.087.119-.131.178a4,4,0,0,1-.3.362c-.049.051-.1.1-.149.153a4.057,4.057,0,0,1-.435.36c-.028.02-.052.043-.08.062a3.846,3.846,0,0,1-.582.317c-.058.025-.119.045-.178.069a3.772,3.772,0,0,1-.484.151c-.066.016-.132.033-.2.045a3.817,3.817,0,0,1-.7.07,3.817,3.817,0,0,1-.7-.07c-.068-.012-.135-.029-.2-.045a3.79,3.79,0,0,1-.484-.151c-.059-.023-.12-.043-.178-.069a3.837,3.837,0,0,1-.582-.317c-.028-.018-.053-.042-.08-.062a3.815,3.815,0,0,1-.436-.36c-.052-.049-.1-.1-.149-.153a3.859,3.859,0,0,1-.3-.362c-.043-.059-.089-.116-.13-.178a3.786,3.786,0,0,1-.3-.551,8.609,8.609,0,0,1,7.066,0A3.912,3.912,0,0,1,1543.32-352.736Zm-3.233-5.953a3.864,3.864,0,0,1,3.859,3.859s0,.009,0,.014a10.252,10.252,0,0,0-7.715,0s0-.009,0-.014A3.864,3.864,0,0,1,1540.086-358.689Z" transform="translate(-1517.702 367.952)"/>
        <path id="Trazado_1744" data-name="Trazado 1744" class="cls-2" d="M1545.462-309.446l-.148-.579-.008-.022a5.4,5.4,0,0,0-.289-.826l-.017-.035a5.393,5.393,0,0,0-.41-.744l-.011-.018a5.412,5.412,0,0,0-.486-.616c-.035-.039-.07-.079-.106-.117a5.414,5.414,0,0,0-.549-.5c-.042-.033-.085-.063-.128-.095a5.39,5.39,0,0,0-.643-.42l-.017-.009a5.412,5.412,0,0,0-.718-.317c-.044-.016-.088-.033-.133-.049a5.371,5.371,0,0,0-.752-.193c-.048-.008-.1-.015-.145-.022a5.493,5.493,0,0,0-.819-.068,5.417,5.417,0,0,0-.82.069c-.049.008-.1.013-.144.022a5.4,5.4,0,0,0-.752.193c-.045.014-.088.032-.132.049a5.353,5.353,0,0,0-.719.317l-.017.009a5.422,5.422,0,0,0-.642.42c-.042.032-.085.063-.127.1a5.379,5.379,0,0,0-.549.5c-.036.039-.071.078-.106.117a5.393,5.393,0,0,0-.486.616l-.011.018a5.421,5.421,0,0,0-.41.744c-.005.012-.012.023-.017.035a5.4,5.4,0,0,0-.289.825c0,.008-.006.015-.008.022l-.148.579.032.018a5.318,5.318,0,0,0-.059.752,5.41,5.41,0,0,0,5.4,5.4,5.41,5.41,0,0,0,5.4-5.4,5.359,5.359,0,0,0-.059-.753Zm-8.609-1.323c.04-.062.086-.119.13-.178a4.133,4.133,0,0,1,.3-.361c.049-.052.1-.1.149-.153a4.05,4.05,0,0,1,.436-.36c.028-.019.052-.043.08-.062a3.835,3.835,0,0,1,.582-.316c.058-.026.119-.046.178-.069a3.781,3.781,0,0,1,.484-.151c.066-.016.133-.033.2-.046a3.817,3.817,0,0,1,.7-.07,3.817,3.817,0,0,1,.7.07c.068.012.135.029.2.046a3.763,3.763,0,0,1,.484.151c.059.023.12.043.178.069a3.854,3.854,0,0,1,.582.316c.028.018.052.043.08.062a3.832,3.832,0,0,1,.435.36c.052.049.1.1.149.153a3.835,3.835,0,0,1,.3.361c.043.059.09.116.131.178a3.912,3.912,0,0,1,.3.551,8.605,8.605,0,0,1-7.066,0A3.857,3.857,0,0,1,1536.853-310.769Zm3.233,5.953a3.864,3.864,0,0,1-3.859-3.859v-.011a10.044,10.044,0,0,0,3.859.783,10.041,10.041,0,0,0,3.858-.783v.011A3.863,3.863,0,0,1,1540.086-304.816Z" transform="translate(-1517.702 340.321)"/>
      </g>
    </g>
  </g>
</svg>
