<svg xmlns="http://www.w3.org/2000/svg" xmlns:xlink="http://www.w3.org/1999/xlink" width="212.999" height="165.333" viewBox="0 0 212.999 165.333">
  <defs>
    <style>
      .cls-1, .cls-5 {
        fill: #fff;
      }

      .cls-1 {
        stroke: #004a8c;
        stroke-miterlimit: 10;
        stroke-width: 2px;
      }

      .cls-2 {
        fill: #004a8c;
      }

      .cls-3 {
        fill: #f6f6f6;
      }

      .cls-4 {
        fill: #e84e11;
      }

      .cls-6 {
        filter: url(#Trazado_1754);
      }

      .cls-7 {
        filter: url(#Rectángulo_242);
      }
    </style>
    <filter id="Rectángulo_242" x="0" y="100.333" width="173" height="65" filterUnits="userSpaceOnUse">
      <feOffset dy="3" input="SourceAlpha"/>
      <feGaussianBlur stdDeviation="3" result="blur"/>
      <feFlood flood-opacity="0.161"/>
      <feComposite operator="in" in2="blur"/>
      <feComposite in="SourceGraphic"/>
    </filter>
    <filter id="Trazado_1754" x="69.276" y="0" width="143.723" height="110.746" filterUnits="userSpaceOnUse">
      <feOffset dy="3" input="SourceAlpha"/>
      <feGaussianBlur stdDeviation="3" result="blur-2"/>
      <feFlood flood-opacity="0.161"/>
      <feComposite operator="in" in2="blur-2"/>
      <feComposite in="SourceGraphic"/>
    </filter>
  </defs>
  <g id="Grupo_244" data-name="Grupo 244" transform="translate(-5.737 -8)">
    <g class="cls-7" transform="matrix(1, 0, 0, 1, 5.74, 8)">
      <rect id="Rectángulo_242-2" data-name="Rectángulo 242" class="cls-1" width="153" height="45" rx="8.661" transform="translate(10 107.33)"/>
    </g>
    <g id="Grupo_237" data-name="Grupo 237" transform="translate(29.31 131.281)">
      <g id="Grupo_236" data-name="Grupo 236">
        <path id="Trazado_1745" data-name="Trazado 1745" class="cls-2" d="M28.916,134.323c0-4.081,2.141-6.515,5.106-6.515s5.126,2.434,5.126,6.515-2.161,6.516-5.126,6.516S28.916,138.4,28.916,134.323Zm8.877,0c0-3.422-1.538-5.308-3.771-5.308s-3.771,1.886-3.771,5.308,1.538,5.308,3.771,5.308S37.793,137.745,37.793,134.323Z" transform="translate(-28.916 -127.808)"/>
        <path id="Trazado_1746" data-name="Trazado 1746" class="cls-2" d="M49.583,127.914v.933l-5.363,11.88H42.793l5.271-11.641H41.474v2.4h-1.3v-3.569Z" transform="translate(-28.572 -127.805)"/>
        <path id="Trazado_1747" data-name="Trazado 1747" class="cls-2" d="M50.651,131.922a.969.969,0,0,1,.971-.988.984.984,0,0,1,.988.988,1,1,0,0,1-.988,1.006A.984.984,0,0,1,50.651,131.922Zm0,7.8a.969.969,0,0,1,.971-.988.984.984,0,0,1,.988.988,1,1,0,0,1-.988,1.007A.985.985,0,0,1,50.651,139.719Z" transform="translate(-28.253 -127.713)"/>
        <path id="Trazado_1748" data-name="Trazado 1748" class="cls-2" d="M62.9,137.046c0,2.141-1.556,3.789-4.65,3.789a6.655,6.655,0,0,1-4.612-1.648l.64-1.042a5.618,5.618,0,0,0,3.972,1.482c2.124,0,3.3-.988,3.3-2.581,0-1.536-1.08-2.543-3.46-2.543h-.914v-.971l3.55-4.447H54.165v-1.172H62.4v.933L58.777,133.4C61.523,133.552,62.9,135,62.9,137.046Z" transform="translate(-28.162 -127.805)"/>
        <path id="Trazado_1749" data-name="Trazado 1749" class="cls-2" d="M64.414,134.323c0-4.081,2.141-6.515,5.106-6.515s5.126,2.434,5.126,6.515-2.161,6.516-5.126,6.516S64.414,138.4,64.414,134.323Zm8.877,0c0-3.422-1.538-5.308-3.771-5.308s-3.771,1.886-3.771,5.308,1.538,5.308,3.771,5.308S73.291,137.745,73.291,134.323Z" transform="translate(-27.833 -127.808)"/>
        <path id="Trazado_1750" data-name="Trazado 1750" class="cls-2" d="M91.412,135.821a4.661,4.661,0,0,1-4.795,4.905,4.205,4.205,0,0,1-3.66-1.9v5.363h-1.3V131.006H82.9v1.9a4.193,4.193,0,0,1,3.716-1.977A4.656,4.656,0,0,1,91.412,135.821Zm-1.3,0a3.591,3.591,0,1,0-3.587,3.751A3.546,3.546,0,0,0,90.112,135.821Z" transform="translate(-27.307 -127.713)"/>
        <path id="Trazado_1751" data-name="Trazado 1751" class="cls-2" d="M109.583,135.052v5.582h-1.3V135.18c0-2.032-1.026-3.075-2.764-3.075-1.978,0-3.221,1.281-3.221,3.477v5.053H101V135.18c0-2.032-1.024-3.075-2.781-3.075-1.958,0-3.221,1.281-3.221,3.477v5.053H93.7v-9.628h1.244v1.757a3.9,3.9,0,0,1,3.533-1.829,3.459,3.459,0,0,1,3.423,2.03,4.193,4.193,0,0,1,3.808-2.03C108.047,130.934,109.583,132.288,109.583,135.052Z" transform="translate(-26.939 -127.713)"/>
      </g>
    </g>
    <path id="Rectángulo_243" data-name="Rectángulo 243" class="cls-2" d="M.857,0H36.875A8.125,8.125,0,0,1,45,8.125v28.75A8.125,8.125,0,0,1,36.875,45H0a0,0,0,0,1,0,0V.857A.857.857,0,0,1,.857,0Z" transform="translate(123.737 115.333)"/>
    <g id="Grupo_239" data-name="Grupo 239" transform="translate(133.718 123.053)">
      <g id="Grupo_238" data-name="Grupo 238">
        <path id="Trazado_1752" data-name="Trazado 1752" class="cls-3" d="M147.411,119.824a10.407,10.407,0,0,1,1.443.635,3.819,3.819,0,0,1,1.767,3.229c.125,2.191.271,4.381.411,6.627h3.692v.661q0,3.459,0,6.919c0,1.9-1.049,2.817-2.929,2.558a1.943,1.943,0,0,0-.224,0c-.5,1.565-1.663,2.035-3.214,2.02-3.972-.039-7.944-.032-11.915,0a2.8,2.8,0,0,1-3.051-2,8.6,8.6,0,0,1-1.394-.012,2.091,2.091,0,0,1-1.75-2.007c-.028-2.668-.009-5.336-.009-8.07h3.728c.083-1.128.165-2.2.239-3.276.092-1.32.154-2.642.27-3.959a3.815,3.815,0,0,1,2.848-3.193c.12-.031.233-.083.349-.126Zm2.556,17.433a.29.29,0,0,0,.028-.1c-.271-4.533-.531-9.066-.823-13.6a2.349,2.349,0,0,0-2.384-2.289q-4.256-.042-8.512,0a2.361,2.361,0,0,0-2.377,2.153c-.271,3.743-.52,7.486-.776,11.229-.06.888-.107,1.777-.158,2.606Zm-7.424,1.375c-2.134,0-4.269-.005-6.4,0a1.218,1.218,0,0,0-1.374,1.186c0,.709.532,1.18,1.37,1.185,1.3.009,2.6,0,3.906,0,2.9,0,5.806,0,8.708,0a1.3,1.3,0,0,0,1.264-.58,1.189,1.189,0,0,0-1.132-1.794C146.769,138.621,144.655,138.632,142.543,138.632Zm-10.882-6.818c0,2.2-.015,4.324.009,6.452a.787.787,0,0,0,1.167.73,1.3,1.3,0,0,0,.493-.924c.044-1.958.023-3.918.02-5.878a2.678,2.678,0,0,0-.058-.379Zm19.944,0c0,2.118,0,4.16,0,6.2,0,.7.285,1.06.814,1.072.551.011.874-.38.876-1.086q.006-2.877,0-5.752a4.114,4.114,0,0,0-.046-.436Z" transform="translate(-130.232 -119.824)"/>
        <path id="Trazado_1753" data-name="Trazado 1753" class="cls-3" d="M137.788,147.966v-1.413h1.9V143.7h-4.816v-1.417H150.68v1.384h-4.807v2.847h1.908v1.454Zm3.426-1.472h3.111v-2.768h-3.111Z" transform="translate(-130.091 -119.139)"/>
      </g>
    </g>
    <g class="cls-6" transform="matrix(1, 0, 0, 1, 5.74, 8)">
      <path id="Trazado_1754-2" data-name="Trazado 1754" class="cls-4" d="M201.393,14H88.33A6.349,6.349,0,0,0,82,20.33V85.989a6.349,6.349,0,0,0,6.33,6.33h46.347l10.184,14.427,11.033-14.427h45.5a6.349,6.349,0,0,0,6.33-6.33V20.33A6.349,6.349,0,0,0,201.393,14Z" transform="translate(-3.72 -8)"/>
    </g>
    <g id="Grupo_241" data-name="Grupo 241" transform="translate(113.671 32.784)">
      <g id="Grupo_240" data-name="Grupo 240">
        <path id="Trazado_1755" data-name="Trazado 1755" class="cls-5" d="M131.756,52.337v5.668H112.08V53.529l9.46-8.846c2.021-1.877,2.31-3.032,2.31-4.08,0-1.624-1.085-2.6-3.25-2.6a5.162,5.162,0,0,0-4.513,2.456L110.779,37.5c1.915-3.177,5.489-5.271,10.47-5.271,5.813,0,9.821,3,9.821,7.69,0,2.455-.686,4.693-4.3,8.015l-4.764,4.4Z" transform="translate(-110.779 -32.228)"/>
        <path id="Trazado_1756" data-name="Trazado 1756" class="cls-5" d="M153.052,49.867c0,4.513-3.394,8.629-11.012,8.629A19.123,19.123,0,0,1,132.256,56l2.564-5.378a12.828,12.828,0,0,0,7,2.093c2.42,0,4.044-.974,4.044-2.671,0-1.553-1.047-2.564-4.911-2.564H134.1l1.264-14.765h16.1v5.523h-10.18l-.327,3.683h1.7C150.127,41.925,153.052,45.391,153.052,49.867Z" transform="translate(-110.124 -32.213)"/>
        <path id="Trazado_1757" data-name="Trazado 1757" class="cls-5" d="M174.6,32.719V37.2L165.686,57.99h-7.8l8.519-19.6h-6.644v3.9h-6.1V32.719Z" transform="translate(-109.47 -32.213)"/>
      </g>
    </g>
    <g id="Grupo_243" data-name="Grupo 243" transform="translate(98.421 65.872)">
      <g id="Grupo_242" data-name="Grupo 242">
        <path id="Trazado_1758" data-name="Trazado 1758" class="cls-5" d="M101.47,69.269a2.629,2.629,0,0,1-2.7,2.761,2.346,2.346,0,0,1-2.091-1.122v1.071h-.7V64.336h.731V67.59a2.368,2.368,0,0,1,2.061-1.071A2.62,2.62,0,0,1,101.47,69.269Zm-.731,0a2.021,2.021,0,1,0-2.019,2.112A1.99,1.99,0,0,0,100.739,69.269Z" transform="translate(-95.98 -64.336)"/>
        <path id="Trazado_1759" data-name="Trazado 1759" class="cls-5" d="M107.644,66.5v5.417h-.7v-.988A2.153,2.153,0,0,1,105,71.964a2.1,2.1,0,0,1-2.287-2.328V66.5h.731v3.07a1.516,1.516,0,0,0,1.628,1.74,1.762,1.762,0,0,0,1.844-1.967V66.5Z" transform="translate(-95.775 -64.27)"/>
        <path id="Trazado_1760" data-name="Trazado 1760" class="cls-5" d="M112.368,71.618a1.739,1.739,0,0,1-1.144.381,1.436,1.436,0,0,1-1.586-1.577V67.148h-.968V66.53h.968V65.346h.733V66.53h1.647v.618H110.37v3.233a.867.867,0,0,0,.937.989,1.2,1.2,0,0,0,.8-.277Z" transform="translate(-95.593 -64.305)"/>
        <path id="Trazado_1761" data-name="Trazado 1761" class="cls-5" d="M117.653,68.556v3.357h-.7V71.07a2.036,2.036,0,0,1-1.864.9c-1.225,0-1.979-.638-1.979-1.577,0-.834.536-1.534,2.092-1.534h1.721v-.329c0-.927-.526-1.432-1.536-1.432a2.758,2.758,0,0,0-1.8.639l-.33-.546a3.442,3.442,0,0,1,2.2-.731A1.925,1.925,0,0,1,117.653,68.556Zm-.731,1.73V69.4h-1.7c-1.05,0-1.39.412-1.39.969,0,.628.5,1.019,1.371,1.019A1.737,1.737,0,0,0,116.922,70.286Z" transform="translate(-95.457 -64.271)"/>
        <path id="Trazado_1762" data-name="Trazado 1762" class="cls-5" d="M118.939,69.2a2.667,2.667,0,0,1,2.792-2.749,2.368,2.368,0,0,1,2.122,1.071l-.545.371a1.843,1.843,0,0,0-1.577-.8,2.112,2.112,0,0,0,0,4.223,1.831,1.831,0,0,0,1.577-.793l.545.372a2.39,2.39,0,0,1-2.122,1.071A2.675,2.675,0,0,1,118.939,69.2Z" transform="translate(-95.279 -64.271)"/>
        <path id="Trazado_1763" data-name="Trazado 1763" class="cls-5" d="M129.2,68.556v3.357h-.7V71.07a2.035,2.035,0,0,1-1.864.9c-1.225,0-1.977-.638-1.977-1.577,0-.834.536-1.534,2.09-1.534h1.72v-.329c0-.927-.525-1.432-1.533-1.432a2.761,2.761,0,0,0-1.8.639l-.33-.546a3.448,3.448,0,0,1,2.2-.731A1.924,1.924,0,0,1,129.2,68.556Zm-.731,1.73V69.4h-1.7c-1.051,0-1.391.412-1.391.969,0,.628.506,1.019,1.37,1.019A1.732,1.732,0,0,0,128.47,70.286Z" transform="translate(-95.105 -64.271)"/>
        <path id="Trazado_1764" data-name="Trazado 1764" class="cls-5" d="M130.27,71.3l.33-.576a3.271,3.271,0,0,0,1.926.608c1.031,0,1.451-.35,1.451-.887,0-1.411-3.51-.3-3.51-2.44,0-.885.761-1.545,2.141-1.545a3.676,3.676,0,0,1,1.916.5l-.319.588a2.768,2.768,0,0,0-1.6-.465c-.978,0-1.411.382-1.411.9,0,1.463,3.512.361,3.512,2.441,0,.937-.825,1.545-2.236,1.545A3.615,3.615,0,0,1,130.27,71.3Z" transform="translate(-94.934 -64.271)"/>
        <path id="Trazado_1765" data-name="Trazado 1765" class="cls-5" d="M143.47,64.336v7.642h-.7V70.908a2.346,2.346,0,0,1-2.091,1.122,2.756,2.756,0,0,1,0-5.51,2.367,2.367,0,0,1,2.061,1.071V64.336Zm-.721,4.933a2.016,2.016,0,1,0-2.008,2.112A1.982,1.982,0,0,0,142.748,69.269Z" transform="translate(-94.698 -64.336)"/>
        <path id="Trazado_1766" data-name="Trazado 1766" class="cls-5" d="M145.129,64.851a.528.528,0,0,1,.537-.515.52.52,0,0,1,.536.5.536.536,0,0,1-1.073.01Zm.165,1.71h.733v5.417h-.733Z" transform="translate(-94.48 -64.336)"/>
        <path id="Trazado_1767" data-name="Trazado 1767" class="cls-5" d="M147.25,71.3l.33-.576a3.265,3.265,0,0,0,1.925.608c1.031,0,1.453-.35,1.453-.887,0-1.411-3.513-.3-3.513-2.44,0-.885.764-1.545,2.142-1.545a3.679,3.679,0,0,1,1.916.5l-.318.588a2.772,2.772,0,0,0-1.6-.465c-.979,0-1.412.382-1.412.9,0,1.463,3.513.361,3.513,2.441,0,.937-.823,1.545-2.234,1.545A3.62,3.62,0,0,1,147.25,71.3Z" transform="translate(-94.415 -64.271)"/>
        <path id="Trazado_1768" data-name="Trazado 1768" class="cls-5" d="M158.36,69.2a2.623,2.623,0,0,1-2.7,2.761,2.365,2.365,0,0,1-2.059-1.071v3.016h-.733V66.5h.7v1.071a2.362,2.362,0,0,1,2.091-1.112A2.62,2.62,0,0,1,158.36,69.2Zm-.733,0a2.02,2.02,0,1,0-2.017,2.112A1.994,1.994,0,0,0,157.627,69.2Z" transform="translate(-94.244 -64.271)"/>
        <path id="Trazado_1769" data-name="Trazado 1769" class="cls-5" d="M159.119,69.2a2.756,2.756,0,1,1,2.762,2.761A2.665,2.665,0,0,1,159.119,69.2Zm4.768,0a2.015,2.015,0,1,0-2.006,2.112A1.975,1.975,0,0,0,163.887,69.2Z" transform="translate(-94.053 -64.271)"/>
        <path id="Trazado_1770" data-name="Trazado 1770" class="cls-5" d="M170.906,68.773v3.141h-.733v-3.07a1.512,1.512,0,0,0-1.626-1.729,1.776,1.776,0,0,0-1.9,1.956v2.843h-.731V66.5h.7v1a2.274,2.274,0,0,1,2.059-1.04A2.075,2.075,0,0,1,170.906,68.773Z" transform="translate(-93.846 -64.271)"/>
        <path id="Trazado_1771" data-name="Trazado 1771" class="cls-5" d="M172.529,64.851a.528.528,0,0,1,.536-.515.519.519,0,0,1,.535.5.525.525,0,0,1-.535.536A.531.531,0,0,1,172.529,64.851Zm.165,1.71h.731v5.417h-.731Z" transform="translate(-93.644 -64.336)"/>
        <path id="Trazado_1772" data-name="Trazado 1772" class="cls-5" d="M180.87,69.269a2.629,2.629,0,0,1-2.7,2.761,2.348,2.348,0,0,1-2.091-1.122v1.071h-.7V64.336h.733V67.59a2.362,2.362,0,0,1,2.059-1.071A2.62,2.62,0,0,1,180.87,69.269Zm-.733,0a2.02,2.02,0,1,0-2.017,2.112A1.989,1.989,0,0,0,180.137,69.269Z" transform="translate(-93.557 -64.336)"/>
        <path id="Trazado_1773" data-name="Trazado 1773" class="cls-5" d="M182.158,64.336h.733v7.642h-.733Z" transform="translate(-93.35 -64.336)"/>
        <path id="Trazado_1774" data-name="Trazado 1774" class="cls-5" d="M189.584,69.432h-4.533a2.006,2.006,0,0,0,2.132,1.884,2.134,2.134,0,0,0,1.658-.711l.412.474A2.864,2.864,0,0,1,184.32,69.2a2.639,2.639,0,1,1,5.274,0C189.594,69.267,189.584,69.35,189.584,69.432Zm-4.533-.547h3.843a1.925,1.925,0,0,0-3.843,0Z" transform="translate(-93.284 -64.271)"/>
        <path id="Trazado_1775" data-name="Trazado 1775" class="cls-5" d="M190.16,71.3l.33-.576a3.265,3.265,0,0,0,1.925.608c1.031,0,1.453-.35,1.453-.887,0-1.411-3.512-.3-3.512-2.44,0-.885.763-1.545,2.141-1.545a3.679,3.679,0,0,1,1.916.5l-.317.588a2.775,2.775,0,0,0-1.6-.465c-.978,0-1.411.382-1.411.9,0,1.463,3.512.361,3.512,2.441,0,.937-.823,1.545-2.234,1.545A3.62,3.62,0,0,1,190.16,71.3Z" transform="translate(-93.106 -64.271)"/>
      </g>
    </g>
  </g>
</svg>
