<svg xmlns="http://www.w3.org/2000/svg" width="24.238" height="24.24" viewBox="0 0 24.238 24.24">
  <defs>
    <style>
      .cls-1 {
        fill: #fff;
      }
    </style>
  </defs>
  <g id="magnifying-glass" transform="translate(-0.001 0)">
    <path id="Trazado_1169" data-name="Trazado 1169" class="cls-1" d="M16.188,2.774a9.485,9.485,0,1,0-1.3,14.489,2,2,0,0,0,.542,1.005l5.385,5.385a2,2,0,0,0,2.834-2.834l-5.385-5.387a2,2,0,0,0-1-.54A9.495,9.495,0,0,0,16.188,2.774Zm-1.7,11.714a7.081,7.081,0,1,1,0-10.013A7.089,7.089,0,0,1,14.487,14.488Z"/>
  </g>
</svg>
