<svg id="cancel_2_" data-name="cancel (2)" xmlns="http://www.w3.org/2000/svg" width="34.7" height="34.7" viewBox="0 0 34.7 34.7">
  <defs>
    <style>
      .cls-1 {
        fill: #1098f9;
      }
    </style>
  </defs>
  <g id="Grupo_191" data-name="Grupo 191">
    <path id="Trazado_1681" data-name="Trazado 1681" class="cls-1" d="M29.618,5.082A17.349,17.349,0,1,0,5.082,29.618,17.349,17.349,0,1,0,29.618,5.082ZM28.223,28.223A15.377,15.377,0,0,1,6.477,6.477,15.377,15.377,0,1,1,28.223,28.223Z"/>
    <path id="Trazado_1682" data-name="Trazado 1682" class="cls-1" d="M144.506,129.215a.983.983,0,0,0-1.395,0l-6.251,6.251-6.251-6.251a.986.986,0,1,0-1.395,1.395l6.251,6.251-6.251,6.251a.989.989,0,0,0,.694,1.687.962.962,0,0,0,.694-.292l6.251-6.251,6.251,6.251a.992.992,0,0,0,.694.292.95.95,0,0,0,.694-.292.983.983,0,0,0,0-1.395l-6.236-6.251,6.251-6.251A.983.983,0,0,0,144.506,129.215Z" transform="translate(-119.511 -119.511)"/>
  </g>
</svg>
