<svg id="error_2_" data-name="error (2)" xmlns="http://www.w3.org/2000/svg" width="46" height="46" viewBox="0 0 46 46">
  <defs>
    <style>
      .cls-1 {
        fill: #fff;
      }
    </style>
  </defs>
  <path id="Trazado_1669" data-name="Trazado 1669" class="cls-1" d="M23,0A23,23,0,1,0,46,23,23.026,23.026,0,0,0,23,0Zm0,44.231A21.231,21.231,0,1,1,44.231,23,21.256,21.256,0,0,1,23,44.231Z"/>
  <path id="Trazado_1670" data-name="Trazado 1670" class="cls-1" d="M33.433,16.259a.884.884,0,0,0-1.251,0L24.846,23.6,17.51,16.259a.884.884,0,0,0-1.251,1.251L23.6,24.846l-7.336,7.336a.884.884,0,1,0,1.251,1.251L24.846,26.1l7.336,7.336a.884.884,0,0,0,1.251-1.251L26.1,24.846l7.336-7.336A.884.884,0,0,0,33.433,16.259Z" transform="translate(-1.846 -1.846)"/>
</svg>
