<svg id="facebook-logo" xmlns="http://www.w3.org/2000/svg" width="57.5" height="57.5" viewBox="0 0 57.5 57.5">
  <defs>
    <style>
      .cls-1 {
        fill: #ff0248;
      }
    </style>
  </defs>
  <path id="Facebook__x28_alt_x29_" class="cls-1" d="M57.5,9.584A9.932,9.932,0,0,0,47.917,0H9.583A9.932,9.932,0,0,0,0,9.584V47.916A9.932,9.932,0,0,0,9.584,57.5H28.75V35.778H21.722V26.194H28.75V22.461c0-6.439,4.835-12.239,10.781-12.239h7.747v9.583H39.531c-.848,0-1.837,1.029-1.837,2.571v3.818h9.583v9.583H37.694V57.5H47.917A9.932,9.932,0,0,0,57.5,47.916Z" transform="translate(0 0)"/>
</svg>
