<?xml version="1.0" encoding="utf-8"?>
<!-- Generator: Adobe Illustrator 21.0.0, SVG Export Plug-In . SVG Version: 6.00 Build 0)  -->
<svg version="1.1" id="Capa_1" xmlns="http://www.w3.org/2000/svg" xmlns:xlink="http://www.w3.org/1999/xlink" x="0px" y="0px"
	 viewBox="0 0 36 44" style="enable-background:new 0 0 36 44;" xml:space="preserve">
<style type="text/css">
	.st0{fill:#415262;}
	.st1{fill:#FFFFFF;}
</style>
<path class="st0" d="M17.7,44c-0.5,0-0.9-0.3-1.2-0.7L10.5,33C4.1,30.3,0,24.1,0,17.3C0,7.7,7.9,0,17.6,0c9.7,0,17.6,7.7,17.6,17.3
	c0,6.7-4,12.8-10.2,15.6l-6.2,10.4C18.6,43.7,18.2,44,17.7,44z"/>
<path class="st1" d="M26.2,15.9l-2-1.8L18.3,9c-0.1-0.1-0.1-0.1-0.2-0.1c-0.1,0-0.2,0-0.3,0h-0.1c-0.2,0-0.3,0.1-0.5,0.2L11,14.1
	l-2,1.8c-0.1,0.1-0.2,0.3-0.2,0.4c0,0.2,0.1,0.3,0.2,0.4c0.1,0.1,0.3,0.2,0.5,0.2c0.2,0,0.4-0.1,0.5-0.2l0.9-0.8v6.3
	c0,0.2,0.1,0.3,0.2,0.4c0.1,0.1,0.3,0.2,0.5,0.2h3.9c0.2,0,0.4-0.1,0.5-0.2c0.1-0.1,0.2-0.3,0.2-0.4v-3.8h3v3.8
	c0,0.2,0.1,0.3,0.2,0.4c0.1,0.1,0.3,0.2,0.5,0.2h3.9c0.2,0,0.4-0.1,0.5-0.2c0.1-0.1,0.2-0.3,0.2-0.4V16l0.9,0.8
	c0.1,0.1,0.1,0.1,0.2,0.1c0.1,0,0.2,0,0.3,0c0.1,0,0.2,0,0.3,0c0.1,0,0.2-0.1,0.2-0.1c0.1-0.1,0.1-0.1,0.1-0.2
	c0-0.1,0.1-0.2,0.1-0.2c0-0.1,0-0.2-0.1-0.2C26.3,16,26.3,16,26.2,15.9z"/>
</svg>
