<?xml version="1.0" encoding="utf-8"?>
<!-- Generator: Adobe Illustrator 21.0.0, SVG Export Plug-In . SVG Version: 6.00 Build 0)  -->
<svg version="1.1" id="Capa_1" xmlns="http://www.w3.org/2000/svg" xmlns:xlink="http://www.w3.org/1999/xlink" x="0px" y="0px"
	 viewBox="0 0 24 24" style="enable-background:new 0 0 24 24;" xml:space="preserve">
<style type="text/css">
	.st0{fill:#FFFFFF;}
</style>
<g>
	<path class="st0" d="M11.2,18.8c0.7,0.6,1.4,0.2,1.7,0l7.2-7.2c0.5-0.5,0.5-1.2,0-1.7c-0.5-0.5-1.2-0.5-1.7,0l-5.2,5.2V1.2
		C13.2,0.5,12.7,0,12,0s-1.2,0.5-1.2,1.2v13.9L5.6,9.9c-0.5-0.5-1.2-0.5-1.7,0c-0.5,0.5-0.5,1.2,0,1.7L11.2,18.8z"/>
	<path class="st0" d="M22.8,19.2c-0.7,0-1.2,0.5-1.2,1.2v1.2H2.4v-1.2c0-0.7-0.5-1.2-1.2-1.2S0,19.7,0,20.4v2.4
		C0,23.5,0.5,24,1.2,24h21.6c0.7,0,1.2-0.5,1.2-1.2v-2.4C24,19.7,23.5,19.2,22.8,19.2z"/>
</g>
</svg>
