<?xml version="1.0" encoding="utf-8"?>
<!-- Generator: Adobe Illustrator 21.0.0, SVG Export Plug-In . SVG Version: 6.00 Build 0)  -->
<svg version="1.1" id="Capa_1" xmlns="http://www.w3.org/2000/svg" xmlns:xlink="http://www.w3.org/1999/xlink" x="0px" y="0px"
	 viewBox="0 0 24 24" style="enable-background:new 0 0 24 24;" xml:space="preserve">
<style type="text/css">
	.st0{fill:#30E190;}
</style>
<path class="st0" d="M16.9,14.8h-1.1l-0.4-0.4c1.3-1.6,2.2-3.6,2.2-5.8c0-4.9-4-8.9-8.9-8.9s-8.9,4-8.9,8.9s4,8.9,8.9,8.9
	c2.2,0,4.2-0.8,5.8-2.2l0.4,0.4v1.1l6.9,6.8l2-2L16.9,14.8z M8.7,14.8c-3.4,0-6.2-2.8-6.2-6.2s2.8-6.2,6.2-6.2s6.2,2.8,6.2,6.2
	S12.1,14.8,8.7,14.8z"/>
</svg>
