<?xml version="1.0" encoding="utf-8"?>
<!-- Generator: Adobe Illustrator 21.0.0, SVG Export Plug-In . SVG Version: 6.00 Build 0)  -->
<svg version="1.1" id="Capa_1" xmlns="http://www.w3.org/2000/svg" xmlns:xlink="http://www.w3.org/1999/xlink" x="0px" y="0px"
	 viewBox="0 0 20 24" style="enable-background:new 0 0 20 24;" xml:space="preserve">
<style type="text/css">
	.st0{fill:#30E190;}
</style>
<g>
	<path class="st0" d="M18.6,0H4.9C4.2,0,3.6,0.6,3.6,1.3v2.2H1.4C0.6,3.6,0,4.1,0,4.8v17.8C0,23.4,0.6,24,1.4,24h13.7
		c0.7,0,1.4-0.6,1.4-1.3v-2.2h2.2c0.7,0,1.4-0.6,1.4-1.3V1.3C20,0.6,19.4,0,18.6,0z M15.3,22.7c0,0.1-0.1,0.2-0.2,0.2H1.4
		c-0.1,0-0.2-0.1-0.2-0.2V4.8c0-0.1,0.1-0.2,0.2-0.2h2.2v14.5c0,0.7,0.6,1.3,1.4,1.3h10.4V22.7z M18.8,19.2c0,0.1-0.1,0.2-0.2,0.2
		H4.9c-0.1,0-0.2-0.1-0.2-0.2V1.3c0-0.1,0.1-0.2,0.2-0.2h13.7c0.1,0,0.2,0.1,0.2,0.2V19.2L18.8,19.2z"/>
	<path class="st0" d="M15.8,12.8H7.7c-0.3,0-0.6,0.2-0.6,0.6c0,0.3,0.2,0.6,0.6,0.6h8.2c0.3,0,0.6-0.2,0.6-0.6
		C16.4,13.1,16.1,12.8,15.8,12.8z"/>
	<path class="st0" d="M15.8,16.1H7.7c-0.3,0-0.6,0.2-0.6,0.6c0,0.3,0.2,0.6,0.6,0.6h8.2c0.3,0,0.6-0.2,0.6-0.6
		C16.4,16.3,16.1,16.1,15.8,16.1z"/>
	<path class="st0" d="M15.8,9.6H7.7c-0.3,0-0.6,0.2-0.6,0.6s0.2,0.6,0.6,0.6h8.2c0.3,0,0.6-0.2,0.6-0.6C16.4,9.7,16.1,9.6,15.8,9.6z
		"/>
	<path class="st0" d="M11.6,5.8h0.3c0.1,0,0.2,0,0.3,0.1c0.1,0.1,0.1,0.2,0.1,0.3c0,0.2-0.2,0.4-0.4,0.4h-0.4
		c-0.1,0-0.2-0.1-0.3-0.2c0-0.1-0.1-0.1-0.2-0.1h-0.5c0,0-0.1,0-0.1,0c0,0,0,0.1,0,0.1c0,0.6,0.5,1,1,1.1V8c0,0.1,0.1,0.2,0.2,0.2
		h0.6c0.1,0,0.2-0.1,0.2-0.2V7.5c0.6-0.1,1-0.6,1.1-1.2c0-0.4-0.1-0.7-0.3-1.1c-0.2-0.3-0.6-0.4-1-0.4h-0.4c-0.1,0-0.2,0-0.3-0.1
		c-0.1-0.1-0.2-0.2-0.2-0.4c0-0.2,0.2-0.4,0.4-0.4H12c0.1,0,0.2,0.1,0.3,0.2c0,0.1,0.1,0.1,0.2,0.1H13c0,0,0.1,0,0.1,0
		c0,0,0-0.1,0-0.1c0-0.6-0.5-1-1-1.1V2.7c0-0.1-0.1-0.2-0.2-0.2h-0.5c-0.1,0-0.2,0.1-0.2,0.2v0.4c-0.7,0.1-1.2,0.8-1.1,1.4
		C10.3,5.2,10.9,5.8,11.6,5.8z"/>
</g>
</svg>
