<?xml version="1.0" encoding="utf-8"?>
<!-- Generator: Adobe Illustrator 21.0.0, SVG Export Plug-In . SVG Version: 6.00 Build 0)  -->
<svg version="1.1" id="Capa_1" xmlns="http://www.w3.org/2000/svg" xmlns:xlink="http://www.w3.org/1999/xlink" x="0px" y="0px"
	 viewBox="0 0 24 24" style="enable-background:new 0 0 24 24;" xml:space="preserve">
<style type="text/css">
	.st0{fill:#415262;}
</style>
<g>
	<path class="st0" d="M4.6,7.4c1.2,0,2.2,0.3,3,1.1l7.3-3c0-0.3-0.1-0.6-0.1-1C14.8,2,16.9,0,19.4,0S24,2,24,4.6s-2,4.7-4.6,4.7
		c-1.7,0-3.1-0.9-3.8-2.1L8.7,9.9C9,10.5,9.2,11.2,9.2,12S9,13.5,8.7,14.1l6.9,2.8c0.8-1.2,2.2-2.1,3.8-2.1c2.5,0,4.6,2.1,4.6,4.7
		S22,24,19.4,24s-4.7-2-4.7-4.6c0-0.3,0.1-0.6,0.1-1l-7.3-3c-0.8,0.7-1.8,1.1-3,1.1C2,16.6,0,14.5,0,12S2,7.4,4.6,7.4z M19.4,16.6
		c-1.6,0-2.9,1.3-2.9,2.9s1.3,2.8,2.9,2.8s2.8-1.2,2.8-2.8C22.2,17.9,21,16.6,19.4,16.6z M19.4,1.7c-1.6,0-2.9,1.2-2.9,2.8
		s1.3,2.9,2.9,2.9s2.8-1.3,2.8-2.9S21,1.7,19.4,1.7z M4.6,9.2C3,9.2,1.8,10.5,1.8,12s1.2,2.8,2.8,2.8s2.9-1.2,2.9-2.8
		S6.1,9.2,4.6,9.2z"/>
</g>
</svg>
