<?xml version="1.0" encoding="utf-8"?>
<!-- Generator: Adobe Illustrator 21.0.0, SVG Export Plug-In . SVG Version: 6.00 Build 0)  -->
<svg version="1.1" id="Capa_1" xmlns="http://www.w3.org/2000/svg" xmlns:xlink="http://www.w3.org/1999/xlink" x="0px" y="0px"
	 viewBox="0 0 24 20.4" style="enable-background:new 0 0 24 20.4;" xml:space="preserve">
<style type="text/css">
	.st0{fill:#415262;}
</style>
<path class="st0" d="M23.7,10.3L21,7.7l-8-7.4c-0.1-0.1-0.2-0.2-0.3-0.2C12.6,0,12.4,0,12.3,0h-0.2c-0.2,0-0.5,0.1-0.6,0.2L3,7.7
	l-2.8,2.6C0.1,10.5,0,10.7,0,10.9c0,0.2,0.1,0.5,0.3,0.6c0.2,0.2,0.4,0.3,0.7,0.3c0.2,0,0.5-0.1,0.7-0.3l1.2-1.1v9.1
	c0,0.2,0.1,0.5,0.3,0.6c0.2,0.2,0.4,0.3,0.7,0.3H9c0.2,0,0.5-0.1,0.7-0.3C9.9,20,10,19.8,10,19.5v-5.5h4v5.5c0,0.2,0.1,0.5,0.3,0.6
	c0.2,0.2,0.4,0.3,0.7,0.3h5.4c0.2,0,0.5-0.1,0.7-0.3c0.2-0.2,0.3-0.4,0.3-0.6v-9.1l1.2,1.1c0.1,0.1,0.2,0.1,0.3,0.2
	c0.1,0,0.2,0.1,0.4,0.1c0.1,0,0.2,0,0.4-0.1c0.1,0,0.2-0.1,0.3-0.2c0.1-0.1,0.2-0.2,0.2-0.3c0-0.1,0.1-0.2,0.1-0.3
	c0-0.1,0-0.2-0.1-0.3C23.9,10.5,23.8,10.4,23.7,10.3z"/>
</svg>
