<svg id="instagram_1_" data-name="instagram (1)" xmlns="http://www.w3.org/2000/svg" width="58" height="58" viewBox="0 0 58 58">
  <defs>
    <style>
      .cls-1 {
        fill: #ff0248;
      }
    </style>
  </defs>
  <path id="Trazado_1672" data-name="Trazado 1672" class="cls-1" d="M49.5,0H8.5A8.506,8.506,0,0,0,0,8.5V49.5A8.506,8.506,0,0,0,8.5,58H49.5A8.506,8.506,0,0,0,58,49.5V8.5A8.506,8.506,0,0,0,49.5,0ZM29.113,44.18A15.293,15.293,0,1,1,44.406,28.887,15.31,15.31,0,0,1,29.113,44.18ZM46.105,16.992a5.1,5.1,0,1,1,5.1-5.1A5.1,5.1,0,0,1,46.105,16.992Zm0,0"/>
  <path id="Trazado_1673" data-name="Trazado 1673" class="cls-1" d="M393.7,90a1.7,1.7,0,1,0,1.7,1.7A1.7,1.7,0,0,0,393.7,90Zm0,0" transform="translate(-347.594 -79.805)"/>
  <path id="Trazado_1674" data-name="Trazado 1674" class="cls-1" d="M163.895,150a11.895,11.895,0,1,0,11.895,11.895A11.909,11.909,0,0,0,163.895,150Zm0,0" transform="translate(-134.781 -133.008)"/>
</svg>
