<svg xmlns="http://www.w3.org/2000/svg" width="240.333" height="55.193" viewBox="0 0 240.333 55.193">
    <defs>
        <style>
            .cls-1{fill:#00346e}.cls-2{fill:#005fa3}.cls-3{fill:#71063b}.cls-4{fill:#64093c}.cls-5{fill:#b3005c}.cls-6{fill:#790f5f}.cls-7{fill:#a90b3f}.cls-8{fill:#c80034}.cls-9{fill:#d23610}.cls-10{fill:#e57800}.cls-11{fill:#e98300}.cls-12{fill:#fcdc0e}.cls-13{fill:#89ab1a}.cls-14{fill:#238158}.cls-15{fill:#006083}.cls-16{fill:#d0b801}.cls-17{fill:#006f8f}.cls-18{fill:#00478e}.cls-19{fill:#0a839a}.cls-20{fill:#00234a}
        </style>
    </defs>
    <g id="Grupo_197" data-name="Grupo 197" transform="translate(-297.858 -189.921)">
        <path id="Trazado_1683" d="M375.91 217.514a27.594 27.594 0 1 1-27.593-27.593 27.6 27.6 0 0 1 27.593 27.593" class="cls-1" data-name="Trazado 1683" transform="translate(-10.375)"/>
        <path id="Trazado_1684" d="M369.975 234.139a25.765 25.765 0 0 1-21.174 9.893c-6.646-.079-16.846-5.258-19.732-13.931-2.071-6.221-3.465-14.366.533-22.871 4.746-10.1 16.144-15.939 27.012-15.444.906.041 1.3.121 2.188.217a27.626 27.626 0 0 0-38.102 25.144 28.291 28.291 0 0 0 1.9 10.434 27.573 27.573 0 0 0 25.794 17.546 27.487 27.487 0 0 0 21.957-10.988z" class="cls-2" data-name="Trazado 1684" transform="translate(-10.361 -.013)"/>
        <path id="Trazado_1685" d="M302.09 251.783l.569 1.281s.953 1.6-.689 1.134a11.151 11.151 0 0 1-2.317-.839 2.032 2.032 0 0 1-1.022-1.12c-.543-1.159-.691-1.539-.691-1.539s-.418-.925.641-.6c.977.294 1.337.388 1.75.479.947.21 1.416.419 1.759 1.207" class="cls-3" data-name="Trazado 1685" transform="translate(0 -27.274)"/>
        <path id="Trazado_1686" d="M302.574 258.74s.877.362 1.66.632a2.839 2.839 0 0 1 1.892 1.213c.5.83.795 1.38.877 1.531s.583 1.077-.527.77a13.055 13.055 0 0 1-2.7-1.016 2.683 2.683 0 0 1-1.425-1.319c-.506-.873-.995-1.751-.738-1.963s.633.024.958.152" class="cls-4" data-name="Trazado 1686" transform="translate(-1.673 -31.12)"/>
        <path id="Trazado_1687" d="M311.967 261.4s.543.114 1.793.261 2.422.191 2.987.776a15.575 15.575 0 0 1 1.344 1.878c.492.668.758 1.39-.209 1.28s-2.891-.443-3.566-.588a2.923 2.923 0 0 1-2.046-1.059 19.372 19.372 0 0 1-1.028-1.657s-.3-.563-.063-.818.788-.073.788-.073" class="cls-5" data-name="Trazado 1687" transform="translate(-6.003 -32.403)"/>
        <path id="Trazado_1688" d="M323.153 272.258s.5.589.788.954l.615.789s.735.918-.669.681-2.031-.366-2.936-.577a10.128 10.128 0 0 1-2.255-.644 5.392 5.392 0 0 1-1.719-1.823c-.379-.553-.733-1.251.512-.981 1.22.262 1.67.367 2.6.523 1.088.184 2.413.341 3.068 1.077" class="cls-6" data-name="Trazado 1688" transform="translate(-8.514 -36.607)"/>
        <path id="Trazado_1689" d="M335.107 273.324c1.268.1 2.228.118 3.056.971a13.715 13.715 0 0 1 1.417 1.73s.994 1.178-.788 1.023c-1.638-.145-2.711-.32-3.54-.42a3.975 3.975 0 0 1-2.583-1c-.263-.256-1.325-1.6-1.442-1.769-.423-.615.144-.851.642-.822s1.783.168 3.238.285" class="cls-7" data-name="Trazado 1689" transform="translate(-15.074 -37.713)"/>
        <path id="Trazado_1690" d="M324.874 262.8l3.914.016a2.741 2.741 0 0 1 2.334 1.046 16.021 16.021 0 0 1 1.156 1.762s1.231 1.471-1.058 1.368a8.9 8.9 0 0 1-2.7-.326s-2.281-.128-2.918-1.043c-.754-1.084-1.24-1.892-1.24-1.892s-.489-.946.506-.931" class="cls-8" data-name="Trazado 1690" transform="translate(-11.974 -33.07)"/>
        <path id="Trazado_1691" d="M348.917 262.543l1.095 1.826s1.141 1.746-.752 1.925c-1.827.174-4.484.226-4.484.226a3.2 3.2 0 0 1-2.789-.863 11.5 11.5 0 0 1-1.371-2.236s-1.011-1.45.865-1.6c1.814-.143 3.34-.282 4.223-.394 1.192-.145 2.365-.178 3.214 1.112" class="cls-9" data-name="Trazado 1691" transform="translate(-19.277 -32.416)"/>
        <path id="Trazado_1692" d="M319.654 251.6l3.364-.239a2.121 2.121 0 0 1 2.22.85c.616 1.095.88 1.646 1.043 2s.961 1.553-1.125 1.65a30.648 30.648 0 0 1-3.567-.033 2.012 2.012 0 0 1-1.722-.926 18.551 18.551 0 0 1-1.046-2.13s-.506-1.112.831-1.176" class="cls-9" data-name="Trazado 1692" transform="translate(-9.47 -27.858)"/>
        <path id="Trazado_1693" d="M335.839 248.744s.882-.114 1.957-.327 2.1-.39 2.1-.39 1.517-.361 2.169.653a18.515 18.515 0 0 1 1.3 2.611s1.045 1.972-.523 2.283-4.125.571-4.663.6c-1.11.065-1.551.131-2.2-.359a6.932 6.932 0 0 1-1.516-2.479c-.327-.8-.6-1.354-.229-1.989.348-.588 1.6-.605 1.6-.605" class="cls-10" data-name="Trazado 1693" transform="translate(-16.427 -26.337)"/>
        <path id="Trazado_1694" d="M349.156 227.591s1.44-.428 2.957-.947c1.64-.56 2.633-.787 2.633-.787s2.149-.854 2.963.888c.874 1.866 1.27 2.941 1.27 2.941s1.06 1.952-.861 2.7c-2 .779-5.365 1.721-5.365 1.721s-2.621 1.02-3.342-.521c-.828-1.77-1.537-3.636-1.537-3.636a1.842 1.842 0 0 1 1.281-2.362" class="cls-11" data-name="Trazado 1694" transform="translate(-22.656 -16.211)"/>
        <path id="Trazado_1695" d="M355.475 242.625s1.7-.436 3.021-.84c1.212-.37 2.925-.952 2.925-.952a2.412 2.412 0 0 1 2.555.759 14.574 14.574 0 0 1 1.444 2.825s1.324 1.986-1.244 2.877-5.141 1.5-5.141 1.5-2.711 1.1-3.648-.581a24.314 24.314 0 0 1-1.431-3.068s-1.032-1.908 1.519-2.522" class="cls-12" data-name="Trazado 1695" transform="translate(-25.36 -23.056)"/>
        <path id="Trazado_1696" d="M360.808 259.252l1.275 2.2s.716 1.765 3.65.891c3.016-.9 5.221-1.536 5.221-1.536s2.409-.53 1.4-2.534c-.8-1.587-1.275-2.407-1.275-2.407s-.68-1.4-2.933-.7c-2.331.722-4.119 1.289-5.029 1.484-1.555.332-3.233.82-2.305 2.6" class="cls-10" data-name="Trazado 1696" transform="translate(-28.443 -29.517)"/>
        <path id="Trazado_1697" d="M369.073 269.724s1.717-.4 3.378-.9c1.611-.479 2.995-.931 2.995-.931s1.789-.567 2.575.711a18.75 18.75 0 0 1 .982 1.736 1.4 1.4 0 0 1-.9 2.128c-2.056.722-5.832 1.69-5.832 1.69s-2.152.507-2.939-.657c-.841-1.242-1.262-1.955-1.262-1.955s-.765-1.388 1.007-1.826" class="cls-9" data-name="Trazado 1697" transform="translate(-31.782 -35.324)"/>
        <path id="Trazado_1698" d="M378.723 234.775s1.254-.485 2.656-1.12 2.688-1.221 2.688-1.221 1.821-.819 2.659.635 1.167 2.2 1.167 2.2a1.749 1.749 0 0 1-.735 2.506c-1.688.953-4.173 2.044-4.995 2.457-1.036.517-2.573 1.119-3.356-.2-.742-1.244-1.372-2.623-1.372-2.623s-1.035-1.771 1.286-2.637" class="cls-13" data-name="Trazado 1698" transform="translate(-36.004 -19.186)"/>
        <path id="Trazado_1699" d="M399.691 225.222s.985-.617 2.188-1.336c1.13-.675 2.206-1.386 2.206-1.386s1.153-.721 1.769.266a18.6 18.6 0 0 1 1.085 2.055 1.783 1.783 0 0 1-.451 2.339c-1.268.967-3.6 2.632-3.6 2.632a3.254 3.254 0 0 1-1.655.668 1.429 1.429 0 0 1-1.419-.952c-.361-.664-.739-1.447-.989-1.946a1.554 1.554 0 0 1 .868-2.339" class="cls-14" data-name="Trazado 1699" transform="translate(-45.703 -14.667)"/>
        <path id="Trazado_1700" d="M414.319 218.567a1.855 1.855 0 0 1 .449-2.341c1.27-.99 2.188-1.752 2.539-2.1s.869-.7 1.354.185c.365.667 1.1 2.152 1.1 2.152a1.76 1.76 0 0 1-.2 2.107c-.884.788-2.306 2.038-2.306 2.038s-1.285 1.237-1.973-.1c-.635-1.242-.965-1.936-.965-1.936" class="cls-15" data-name="Trazado 1700" transform="translate(-52.735 -10.813)"/>
        <path id="Trazado_1701" d="M385.55 248.275s1.123-.463 2.723-1.255 2.672-1.454 2.672-1.454 1.6-.884 2.3.442c0 0 .881 1.744 1.086 2.174a1.837 1.837 0 0 1-.809 2.285c-1.011.644-5.414 2.947-5.414 2.947s-1.881.808-2.69-.517a14.247 14.247 0 0 1-1.106-2.116c-.182-.389-.717-1.66 1.236-2.506" class="cls-16" data-name="Trazado 1701" transform="translate(-39.135 -25.118)"/>
        <path id="Trazado_1702" d="M419.591 227.277s.86-.777 1.5-1.373 1.357-1.292 1.357-1.292.56-.462.893.05a10.722 10.722 0 0 1 .812 1.97 2 2 0 0 1-.266 2.018 72.865 72.865 0 0 1-1.423 1.57c-.5.53-1.284 1.414-1.838 1.342-.613-.084-.826-.464-1.156-1.407s-.828-2.035.117-2.878" class="cls-17" data-name="Trazado 1702" transform="translate(-54.988 -15.654)"/>
        <path id="Trazado_1703" d="M427.986 220.353l.979-1.277s.408-.669.681 0c0 0 .435 1.224.594 1.734.285.912.383 1.21.051 1.808a8.24 8.24 0 0 1-.833 1.177s-.554 1.14-1.025-.185c-.457-1.286-.548-1.456-.645-1.81a1.515 1.515 0 0 1 .2-1.447" class="cls-18" data-name="Trazado 1703" transform="translate(-58.912 -13.094)"/>
        <path id="Trazado_1704" d="M413.176 253.621s2.432-1.917 3.187-2.617a1.888 1.888 0 0 0 .793-1.695 6.808 6.808 0 0 0-.534-1.954c-.185-.515-.461-1.361-1.087-1.269s-1.326.847-1.915 1.307-2.248 1.769-2.838 2.175a1.965 1.965 0 0 0-.81 2.321c.368 1.1.682 2.32 1.493 2.451.672.106 1.158-.315 1.711-.718" class="cls-19" data-name="Trazado 1704" transform="translate(-50.819 -25.482)"/>
        <path id="Trazado_1705" d="M470.827 241.646c-.064-.2-.192-.574-.6-.574a1.663 1.663 0 0 0-.546.132 10.08 10.08 0 0 1-3.391.68c-2.163 0-3.125-1.247-3.125-4.035 0-1.261.3-4.186 3.036-4.186a9.751 9.751 0 0 1 2.93.53 2.314 2.314 0 0 0 .579.113.738.738 0 0 0 .69-.553l.841-2.315c.273-.634.172-.907-.467-1.2a11.512 11.512 0 0 0-4.908-1.059c-4.825 0-7.822 3.323-7.822 8.675 0 5.572 2.609 8.516 7.55 8.516a12.467 12.467 0 0 0 5.746-1.277.779.779 0 0 0 .332-1.179z" class="cls-20" data-name="Trazado 1705" transform="translate(-72.684 -17.81)"/>
        <path id="Trazado_1706" d="M513.331 229.572a37.222 37.222 0 0 0-4.45.307c-1.751.342-2.1 1.3-2.1 2.721v13.014c0 .728.52.817.911.817h3.123c.6 0 .908-.132.908-.817v-11.752a12.228 12.228 0 0 1 1.789-.109c2.489 0 3.37.96 3.37 3.674v8.188c0 .728.516.817.908.817h3.154c.6 0 .9-.132.9-.817V237.7c0-5.695-2.545-8.126-8.517-8.126" class="cls-20" data-name="Trazado 1706" transform="translate(-94.799 -17.992)"/>
        <path id="Trazado_1707" d="M661.672 229.572a37.226 37.226 0 0 0-4.454.307c-1.747.342-2.1 1.3-2.1 2.721v13.014c0 .728.518.817.908.817h3.125c.6 0 .9-.132.9-.817v-11.752a12.327 12.327 0 0 1 1.8-.109c2.483 0 3.363.96 3.363 3.674v8.188c0 .728.52.817.91.817h3.154c.6 0 .907-.132.907-.817V237.7c0-5.695-2.552-8.126-8.519-8.126" class="cls-20" data-name="Trazado 1707" transform="translate(-162.108 -17.992)"/>
        <path id="Trazado_1708" d="M693.557 235.875a2.653 2.653 0 0 1 2.78-2.828c1.639 0 2.679.846 2.725 2.828zm2.69-6.781c-4.818 0-7.811 3.345-7.811 8.725 0 5.807 2.566 8.508 8.083 8.508a10.853 10.853 0 0 0 5.525-1.406.77.77 0 0 0 .378-1.073l-.922-2.112c-.181-.38-.431-.66-1.116-.352a9.306 9.306 0 0 1-3.4.783c-2.161 0-3.541-.95-3.537-2.924h6.793c2.295 0 2.951-.411 2.955-3.063a6.863 6.863 0 0 0-6.951-7.087" class="cls-20" data-name="Trazado 1708" transform="translate(-177.223 -17.775)"/>
        <path id="Trazado_1709" d="M545.517 235.875a2.655 2.655 0 0 1 2.783-2.828c1.636 0 2.674.846 2.72 2.828zm2.69-6.781c-4.818 0-7.813 3.345-7.813 8.725 0 5.807 2.567 8.508 8.088 8.508a10.831 10.831 0 0 0 5.52-1.406.777.777 0 0 0 .382-1.073l-.93-2.112a.645.645 0 0 0-.593-.46 1.658 1.658 0 0 0-.515.108 9.345 9.345 0 0 1-3.4.783c-2.161 0-3.54-.95-3.536-2.924h6.8c2.3 0 2.947-.411 2.954-3.063a6.866 6.866 0 0 0-6.952-7.087" class="cls-20" data-name="Trazado 1709" transform="translate(-110.05 -17.775)"/>
        <path id="Trazado_1710" d="M729.791 224.879l-3.038.005v-5.05c0-.6-.2-.855-.944-.855h-3.092c-.367 0-.931 0-.931.846v18.369c0 2.6 1.42 3.43 3.166 3.43a3.471 3.471 0 0 0 1.776-.4l-.009-12.573h3.07c.756 0 .756-.474.756-.848v-2.139c0-.275 0-.785-.756-.785" class="cls-20" data-name="Trazado 1710" transform="translate(-192.356 -13.185)"/>
        <path id="Trazado_1711" d="M580.623 241.1a9.245 9.245 0 0 1-2.243-.291l.055-7.863a9.137 9.137 0 0 1 2.034-.255c2.364.017 3.359 1.256 3.342 4.154-.022 2.877-1.064 4.27-3.188 4.255m.452-12.736a18.016 18.016 0 0 0-6.841 1.194c-.628.334-.884.682-.89 1.179l.011 18.456a3.145 3.145 0 0 0 3.161 3.428 5.109 5.109 0 0 0 1.819-.316l.016-7.192a15.022 15.022 0 0 0 3.159.324c4.558.029 7.256-3.214 7.289-8.469.041-5.6-2.529-8.573-7.724-8.606" class="cls-20" data-name="Trazado 1711" transform="translate(-125.001 -17.443)"/>
        <path id="Trazado_1712" d="M494.313 220.414h-3.095c-.387 0-.912.084-.912.816v2.046c0 .728.526.813.912.813h3.095c.594 0 .937-.132.937-.813v-2.046c0-.685-.343-.816-.937-.816" class="cls-20" data-name="Trazado 1712" transform="translate(-87.323 -13.836)"/>
        <path id="Trazado_1713" d="M495.282 231.106c0-.511-.181-.816-.941-.816h-3.089c-.376 0-.946 0-.946.846l.014 12.18c0 2.37 1.409 3.431 3.155 3.431a3.39 3.39 0 0 0 1.776-.4c0-.6.03-15.236.03-15.236" class="cls-20" data-name="Trazado 1713" transform="translate(-87.323 -18.317)"/>
        <path id="Trazado_1714" d="M612.252 219.727c0-.594-.343-.816-1-.816h-2.96c-.376 0-1.013 0-1.013.847v18.395c0 2.37 1.414 3.43 3.16 3.43a3.431 3.431 0 0 0 1.782-.4l.023-21.451" class="cls-20" data-name="Trazado 1714" transform="translate(-140.399 -13.154)"/>
        <path id="Trazado_1715" d="M629.025 242.917c-2.125 0-2.769-1.15-2.769-1.855 0-1.3.918-1.971 2.891-1.971h2.128v3.509a9.115 9.115 0 0 1-2.249.312m.544-13.789a18.178 18.178 0 0 0-5.949.926.726.726 0 0 0-.474 1.009l.486 2.127a.711.711 0 0 0 .7.644 1.69 1.69 0 0 0 .39-.052 19.322 19.322 0 0 1 4.207-.569c2.081 0 2.369.905 2.369 1.884v.607h-3.065c-4.177 0-6.669 2.044-6.669 5.307 0 3.539 2.463 5.334 7.334 5.334a17.218 17.218 0 0 0 6.558-1.153 1.369 1.369 0 0 0 .778-1.421v-8.8c0-3.882-2.243-5.848-6.67-5.848" class="cls-20" data-name="Trazado 1715" transform="translate(-146.883 -17.79)"/>
    </g>
</svg>
