<svg xmlns="http://www.w3.org/2000/svg" width="235.871" height="54.153" viewBox="0 0 235.871 54.153">
  <defs>
    <style>
      .cls-1 {
        fill: #fff;
      }
    </style>
  </defs>
  <path id="Trazado_1634" data-name="Trazado 1634" class="cls-1" d="M117.052,185.3c-13.767,1.557-25.215-8.463-25.57-22.381S102,136.459,115.766,134.9a24.4,24.4,0,0,1,5.728.026,27.077,27.077,0,1,0,13.367,40.554,27.321,27.321,0,0,1-17.808,9.822m139.67-17.665V164.19h-2.088c-1.937,0-2.837.654-2.837,1.935,0,.691.632,1.82,2.717,1.82a8.953,8.953,0,0,0,2.207-.306m4.873-7.487v8.634a1.344,1.344,0,0,1-.764,1.395,16.885,16.885,0,0,1-6.435,1.131c-4.781,0-7.2-1.762-7.2-5.235,0-3.2,2.445-5.209,6.545-5.209h3.008v-.6c0-.961-.283-1.849-2.324-1.849a18.95,18.95,0,0,0-4.129.559,1.654,1.654,0,0,1-.384.051.7.7,0,0,1-.691-.632l-.477-2.088a.712.712,0,0,1,.465-.99,17.838,17.838,0,0,1,5.838-.909c4.345,0,6.546,1.929,6.546,5.739m-17.179-10.416c0-.583-.336-.8-.981-.8h-2.9c-.369,0-.994,0-.994.832v10.917h0s0,7.1,0,7.137c0,2.326,1.389,3.366,3.1,3.366a3.37,3.37,0,0,0,1.749-.4c0-.584.022-21.053.022-21.053m-62.708,6.1c0-.5-.178-.8-.923-.8h-3.032c-.369,0-.928,0-.928.831,0,0,.015,11.913.015,11.954,0,2.326,1.383,3.366,3.1,3.366a3.327,3.327,0,0,0,1.743-.4c0-.584.03-14.953.03-14.953m-.951-6.1h-3.037c-.38,0-.9.082-.9.8v2.008c0,.715.516.8.9.8h3.037c.584,0,.92-.129.92-.8v-2.008c0-.672-.336-.8-.92-.8m50.857,12.586c.017-2.845-.96-4.06-3.28-4.077a9.036,9.036,0,0,0-2,.25l-.053,7.718a9.052,9.052,0,0,0,2.2.285c2.085.014,3.107-1.352,3.129-4.176m4.9.121c-.032,5.158-2.681,8.34-7.154,8.311a14.741,14.741,0,0,1-3.1-.318s-.016,6.747-.016,7.059a5.016,5.016,0,0,1-1.785.31,3.087,3.087,0,0,1-3.1-3.365c0-.047-.011-18.114-.011-18.114,0-.487.257-.829.873-1.157A17.679,17.679,0,0,1,228.931,154c5.1.031,7.621,2.951,7.581,8.445m72.27-7.687-2.981.005V149.81c0-.584-.2-.839-.926-.839H301.84c-.36,0-.915,0-.915.831,0,0,0,17.988,0,18.028,0,2.551,1.393,3.366,3.107,3.366a3.4,3.4,0,0,0,1.743-.394c0-.59-.009-12.339-.009-12.339h3.013c.742,0,.742-.465.742-.833v-2.1c0-.269,0-.771-.742-.771m-94.675,6.288c-.046-1.945-1.064-2.775-2.67-2.775a2.605,2.605,0,0,0-2.73,2.775Zm4.063.3c-.007,2.6-.646,3.006-2.9,3.006H208.6c0,1.937,1.35,2.869,3.471,2.869a9.173,9.173,0,0,0,3.339-.768,1.623,1.623,0,0,1,.5-.106.631.631,0,0,1,.582.452l.913,2.072a.762.762,0,0,1-.374,1.053,10.633,10.633,0,0,1-5.418,1.38c-5.418,0-7.938-2.652-7.938-8.351,0-5.28,2.94-8.563,7.667-8.563a6.739,6.739,0,0,1,6.824,6.955m75.3-.3c-.046-1.945-1.066-2.775-2.674-2.775a2.6,2.6,0,0,0-2.728,2.775Zm4.06.3c0,2.6-.648,3.006-2.9,3.006h-6.666c-.005,1.937,1.35,2.869,3.471,2.869a9.134,9.134,0,0,0,3.334-.768c.672-.3.917-.027,1.095.346l.905,2.072a.757.757,0,0,1-.371,1.053,10.656,10.656,0,0,1-5.422,1.38c-5.415,0-7.933-2.652-7.933-8.351,0-5.28,2.938-8.563,7.667-8.563a6.736,6.736,0,0,1,6.822,6.955m-25.92-6.7a36.467,36.467,0,0,0-4.371.3c-1.716.336-2.057,1.272-2.057,2.67v12.773c0,.714.509.8.892.8h3.066c.585,0,.887-.129.887-.8V158.86a12.129,12.129,0,0,1,1.765-.107c2.437,0,3.3.942,3.3,3.605v8.036c0,.714.51.8.893.8h3.095c.59,0,.89-.129.89-.8v-7.771c0-5.588-2.5-7.975-8.361-7.975m-79.528,0a36.455,36.455,0,0,0-4.367.3c-1.719.336-2.06,1.272-2.06,2.67v12.773c0,.714.51.8.893.8h3.065c.586,0,.891-.129.891-.8V158.86a12.03,12.03,0,0,1,1.756-.107c2.443,0,3.307.942,3.307,3.605v8.036c0,.714.506.8.891.8h3.095c.59,0,.887-.129.887-.8v-7.771c0-5.588-2.5-7.975-8.36-7.975m-20.011,12.028c-.062-.2-.188-.563-.586-.563a1.629,1.629,0,0,0-.537.129,9.872,9.872,0,0,1-3.328.667c-2.123,0-3.066-1.224-3.066-3.959,0-1.238.293-4.109,2.979-4.109a9.578,9.578,0,0,1,2.876.52,2.279,2.279,0,0,0,.568.111.726.726,0,0,0,.677-.543l.825-2.272c.268-.623.169-.889-.458-1.181a11.293,11.293,0,0,0-4.817-1.04c-4.735,0-7.677,3.262-7.677,8.515,0,5.468,2.56,8.358,7.41,8.358a12.236,12.236,0,0,0,5.64-1.253.764.764,0,0,0,.326-1.157ZM136.954,170.9s2.387-1.882,3.128-2.568a1.852,1.852,0,0,0,.778-1.663,6.688,6.688,0,0,0-.524-1.918c-.181-.505-.452-1.336-1.066-1.247s-1.3.832-1.881,1.283-2.205,1.736-2.785,2.134a1.929,1.929,0,0,0-.8,2.278c.361,1.082.669,2.277,1.465,2.4.66.1,1.136-.309,1.68-.705m6.4-19.072c.1.347.185.514.633,1.776.462,1.3,1.006.181,1.006.181a8.1,8.1,0,0,0,.817-1.154c.326-.587.229-.88-.05-1.775-.156-.5-.583-1.7-.583-1.7-.267-.657-.668,0-.668,0l-.961,1.253a1.485,1.485,0,0,0-.194,1.42m-4.309,5.688c.324.926.534,1.3,1.135,1.381.543.071,1.317-.8,1.8-1.317.392-.418.747-.81,1.4-1.541a1.961,1.961,0,0,0,.26-1.981,10.531,10.531,0,0,0-.8-1.934c-.327-.5-.876-.049-.876-.049s-.7.682-1.333,1.268-1.476,1.348-1.476,1.348c-.928.827-.439,1.9-.115,2.825m-18.949,10.954a13.915,13.915,0,0,0,1.085,2.077c.794,1.3,2.641.508,2.641.508s4.32-2.26,5.313-2.892a1.8,1.8,0,0,0,.794-2.242c-.2-.423-1.066-2.133-1.066-2.133-.686-1.3-2.259-.434-2.259-.434s-1.048.65-2.623,1.428-2.672,1.231-2.672,1.231c-1.916.831-1.393,2.078-1.213,2.459M137.142,152.8c.675,1.313,1.936.1,1.936.1s1.4-1.227,2.263-2a1.728,1.728,0,0,0,.2-2.068s-.723-1.457-1.082-2.112c-.476-.869-.984-.524-1.329-.181s-1.245,1.092-2.493,2.064a1.821,1.821,0,0,0-.44,2.3s.325.681.948,1.9m-9.254,3.143c.245.491.615,1.259.97,1.911a1.4,1.4,0,0,0,1.393.934,3.2,3.2,0,0,0,1.624-.655s2.291-1.634,3.537-2.584a1.75,1.75,0,0,0,.442-2.3,18.234,18.234,0,0,0-1.064-2.017c-.605-.968-1.737-.261-1.737-.261s-1.056.7-2.164,1.36c-1.181.705-2.147,1.311-2.147,1.311a1.524,1.524,0,0,0-.852,2.3m-11.471,5.234s.619,1.353,1.346,2.574c.768,1.3,2.276.705,3.293.2.808-.4,3.245-1.476,4.9-2.411a1.717,1.717,0,0,0,.721-2.459s-.33-.738-1.146-2.163-2.608-.623-2.608-.623-1.262.574-2.639,1.2-2.607,1.1-2.607,1.1c-2.278.849-1.263,2.588-1.263,2.588m-5.053,17.665s.413.7,1.239,1.918c.773,1.144,2.885.645,2.885.645s3.706-.95,5.724-1.659a1.373,1.373,0,0,0,.885-2.088,18.431,18.431,0,0,0-.963-1.7c-.771-1.254-2.527-.7-2.527-.7s-1.358.444-2.939.915c-1.63.484-3.315.878-3.315.878-1.739.431-.988,1.792-.988,1.792m-3.846-6.37,1.251,2.16s.7,1.733,3.582.874c2.96-.88,5.124-1.507,5.124-1.507s2.364-.52,1.371-2.487c-.788-1.558-1.251-2.363-1.251-2.363s-.668-1.371-2.879-.686c-2.289.709-4.042,1.264-4.936,1.456-1.525.326-3.172.806-2.262,2.553m-3.7-7.5a23.789,23.789,0,0,0,1.4,3.012c.92,1.646,3.58.569,3.58.569s2.525-.6,5.045-1.474,1.221-2.823,1.221-2.823a14.282,14.282,0,0,0-1.418-2.773,2.366,2.366,0,0,0-2.507-.745s-1.682.571-2.87.934c-1.294.4-2.965.824-2.965.824-2.5.6-1.49,2.475-1.49,2.475m-3.314-8.194s.7,1.832,1.508,3.569c.708,1.513,3.28.512,3.28.512s3.3-.925,5.266-1.69c1.885-.736.845-2.652.845-2.652s-.388-1.056-1.246-2.887c-.8-1.71-2.909-.872-2.909-.872s-.974.223-2.584.772c-1.489.51-2.9.929-2.9.929a1.808,1.808,0,0,0-1.257,2.318m-7.267,9.1c-.369.623-.1,1.169.225,1.953a6.8,6.8,0,0,0,1.488,2.433c.641.481,1.073.417,2.163.353.529-.031,3.041-.287,4.577-.592s.513-2.241.513-2.241a18.148,18.148,0,0,0-1.281-2.561c-.64-.994-2.129-.641-2.129-.641s-1.008.176-2.065.383-1.921.321-1.921.321-1.228.016-1.569.594m8.452,5.892c-.866.11-2.364.247-4.145.386-1.842.144-.849,1.568-.849,1.568a11.3,11.3,0,0,0,1.346,2.194,3.14,3.14,0,0,0,2.738.847s2.608-.052,4.4-.222c1.857-.177.738-1.89.738-1.89l-1.074-1.792c-.833-1.266-1.984-1.233-3.154-1.091M87.11,177.217c-.908-.153-1.35-.257-2.548-.514-1.222-.265-.874.419-.5.963a5.3,5.3,0,0,0,1.687,1.789,9.926,9.926,0,0,0,2.213.633c.888.206,1.5.332,2.882.566s.656-.669.656-.669l-.6-.774c-.283-.359-.773-.937-.773-.937-.642-.723-1.943-.877-3.011-1.057m-6.277-5.406c-.232.251.062.8.062.8a19.119,19.119,0,0,0,1.009,1.627,2.87,2.87,0,0,0,2.009,1.039c.662.143,2.549.469,3.5.577s.687-.6.205-1.257a15.449,15.449,0,0,0-1.319-1.844c-.555-.573-1.719-.619-2.932-.762s-1.76-.256-1.76-.256-.541-.18-.774.071M75.7,170.244c-.252.207.227,1.069.724,1.926a2.631,2.631,0,0,0,1.4,1.294,12.758,12.758,0,0,0,2.647,1c1.089.3.6-.605.517-.755s-.368-.688-.862-1.5a2.786,2.786,0,0,0-1.856-1.19c-.768-.265-1.629-.62-1.629-.62-.32-.125-.686-.355-.94-.149m2.107-2.905.558,1.258s.935,1.574-.677,1.113a10.929,10.929,0,0,1-2.274-.824,2,2,0,0,1-1-1.1c-.533-1.137-.678-1.511-.678-1.511s-.41-.908.629-.591c.959.288,1.312.38,1.718.469.929.206,1.39.411,1.727,1.185" transform="translate(-73.652 -133.342)"/>
</svg>
